<mxfile host="65bd71144e">
    <diagram id="OF9jKoFBsZDAIJlgLv_8" name="Page-1">
        <mxGraphModel dx="1916" dy="931" grid="0" gridSize="10" guides="1" tooltips="1" connect="1" arrows="1" fold="1" page="0" pageScale="1" pageWidth="1920" pageHeight="1200" math="0" shadow="0">
            <root>
                <mxCell id="0"/>
                <mxCell id="1" parent="0"/>
                <mxCell id="9" style="edgeStyle=none;html=1;" edge="1" parent="1" source="5">
                    <mxGeometry relative="1" as="geometry">
                        <mxPoint x="-162" y="-40" as="targetPoint"/>
                    </mxGeometry>
                </mxCell>
                <mxCell id="5" value="Question" style="whiteSpace=wrap;html=1;" vertex="1" parent="1">
                    <mxGeometry x="-410" y="-70" width="120" height="60" as="geometry"/>
                </mxCell>
                <mxCell id="12" value="" style="edgeStyle=none;html=1;" edge="1" parent="1" source="10" target="11">
                    <mxGeometry relative="1" as="geometry"/>
                </mxCell>
                <mxCell id="10" value="Answer" style="whiteSpace=wrap;html=1;" vertex="1" parent="1">
                    <mxGeometry x="-156" y="-70" width="120" height="60" as="geometry"/>
                </mxCell>
                <mxCell id="11" value="Source 1" style="whiteSpace=wrap;html=1;" vertex="1" parent="1">
                    <mxGeometry x="36" y="-110" width="120" height="60" as="geometry"/>
                </mxCell>
                <mxCell id="13" value="Source 2" style="whiteSpace=wrap;html=1;" vertex="1" parent="1">
                    <mxGeometry x="36" y="-21" width="120" height="60" as="geometry"/>
                </mxCell>
                <mxCell id="14" value="" style="shape=stencil(lZzbkh23DUW/Zl67eL88O85/uMpypIoiuWQlsf8+YKb6zOmNM4s6b3MBupskCGxsgHzJP/3x8ZffP7yk8Mf3b1//+eG/n379/vEl/+0lpU9fPn749um7/fSSf37JP/329duHf3z7+u8vv77+/vsvS3L99K+v/1lP+PNVLx2lLqUU/jr/0Mv///D3V/HPn75cxNe/7sTLkQaJx+vT61EyiYd5EW/HaCieL+LjaPF98XjMdhGPAcdq8vEqn4+I8mNc5esxYLTxHNxNfhwjoLwslX3hRPlyla/nYr8nf53ONI/C473aQs7H5O8X+XFUWF4nX/KR+fnX9SrjtKcfk69s+16+H6k/Id/iUdMz8vWIaM8qb+N95vk9HOUp+bSTv9pzL0fA9ZrX9e31SLBebrv3hvZmzkeeP3D/mm+T8U4cr8lfxzvMn6C7SlfvNtJR0Rvm6/eMchR8fr6Od7Qjs/zVP4zd/OR+lZ9H4++/jneGY4L/uVnXTd5WHPaXC10zHwX2i8nL95TN/Nfr/M96VPz+erXP2Y6K31+v9jP70WC98tGmypP/LMfo7vkw3qbra/Id7H8oFjD5Qf4znMtzpzABPcSkHmWahyOF6kxinAjksYL9OzgF2jNmwvmZN9iq9afGYMvQ3DLQLFmUbuGZdcjpNON7wyAFs3v3hgyfZIE9D1UIMEslHsntnQaxwKCAGnc7Er3hthfvdjNF+zKPOFWBTKNGt3AF92fNzpbsL+AwanPWmk8f+1hhKKA2lzpglupUjGwKGRSaH3Q8R/VYwTC0U2gQxZtNYlGFDLNkqElwoykkekN3sxRxixrOysEpQORp07n6iNDIkFkfTgGm1aBZqKoQ6Q35wRgS7AcDc7qBIqYHhuaGW7gGC9cfrQMBBsNzST4poRNYgK6qAoV0Q3QtqsKElR42RAdKEizcyG5aLWLQJ1UXdsvpqR4rtKNHVWgU17sCc1OYpDDPvOPOVdKgDQiGpgoEbZcxOyxG8cGWKbo3DNjTy5O6gBLAvNckBlUgLmTFGxfjKL+wf0sCtgAlfVI/w8d9FAVrXXHfTSsuXD9j5p21Uk67oIi8wZaSZsneIFnGwKxwjeG6DpYmDVbQPIm9t03ivO7p5alolmxdr2Mw90yOzGZ9XsdgIWbQJ9XTV98UCu+HopivBVbI6r0NfXQatAX2q3nXhPSXbdHi+Bris1b4uMaHUpHwWDHzOgbDmZn9kqSguSMlZ55PMpRsOToriPHliEm3Wb8ggdQRJJpCFhqvYP6w3L3whAl33LilkTficiJPawrCNEROOExBgK5ldgQdLMaNq2nEzCGrqSOzZJPIElPQQUdk50yhOro58BsEnAyE3ovduVpGx92w5K+TyiHU3KjYRT2X8T0kI4bHu3OkM1zedif6i+Wlu8gTXWJgrzWRJ/p7sYNZ5BN8f29n5HuTR4hedCdnTNNXzCgij+ONisLyUSiLmeodmV5v3T8/UqZXNJfMnCQlV69AetcCWE8iTzGzDgU7CQNabZp4JtwvtSj/Z/Iw/xYemyu9wXhrcPWZE9i/S2AElSfCoyvLk04o9li+ntH6bv7h+4tL5BkfFMcUJIwyxdevEPGXoPwup3Z5qn9gUGfQQfIutv/ctD6QMcAY0lDsgdg9Z8VbGeOLARPJJtif5KABL2PykRzBltHeFu6pIk9MU3IhvjDxWhUic169wongVy5fZa3nFOSxFgrT76f4lW6J1Zs8ljeC0i0FyxVxaDwyeSqvutSvINEX2+kuf1C+qr0VLv+X03x/UN7tF6ZNDA9m93xKNjQcbVgZ33lBXEA/s4o74wHxqnPPTHTR0JvP2tpjU9PIEtHTJgWqEQ3N9aRExG2ubBuQEk9nx8qbeMWicw8ijk5ZaVvOEfK5iHfi8DFZmXB+etGAG5ARLv5jiApyfFngcH5miHerSmhBnTdXFcoZ+u4sEr89KFSjUlDW3ZQQWWcN/LdK/jsmJvTsrXHhvc2nTyebuaXBbzNDqDRp4S5ikuhiWkA/4z4mMKTwJpZRfOrWppKJi9+B8Zz3BJQeFqXEw7kb3zNgFafehyfFq0Kt+FywSVzzUJeaTr70nUDZFacjLnBxOGHe7OM8520eR3Be6HHKRt7hoI38jaL8sTxy4Tj1H7jDo1omz4/vu0oIbFaaow4K22aK8kYJ487qetT5wTaqB3k/FdmTq4kkbAs085/6/cQAW15VHHqiPMz1TUYMtJYXShU1Ik+QHfiLuL6W10peEs/E+728uanzoTKZ5eVBn0/NKT7vj8j8el5h83zHW0QsCXheJGKTtOddItqz53UigvXFG+n80P7yvFTEmrrnvSLu9/pgfigdqJ54R9CweEF9PrbJBe3oiugPW3J94dhW16ryrBF5kdb9eg16vuOxOBvr8YE8zH/PPl5Q1tGLj0fkD3tTYMVoow+t7CcsAvapsJDhyYha3UpobyNpXYJ52VF8bk4wdTj/kLkk+YDXx7bP8aAOwwXJdH3+pu409NDIpq411P8PrlONM/+52TMj81UglQ0fuZLnmMqYsDVkDLflM9YyxtD2lsi9yasqLEGjYxQ2BbG6ONlMhysHJOyMXaVw2ZebAuB0BH/nLomgWY9hKYJOq0FdKPKCFMhqgROOnHuspzviZPCCqISZHItdsGy4muBle/KxolnO7sjb/kxYnV/dYFLobWh8q1fLNZ+Q8c2mC7e6QMEHvLUX3xQGJn2ra8i16KAtOS+2Tp+wgrxhBKxnzqlx0zx/p36YqXv6zdW+pyBIZ0Ys4ZqCdllnXLgYgjpXW3yqctgrfM8a9T+agjbUd26ucvmBLQ0FOHueJPjrEbRyLuLaGwiC2Q6SlH1uzDW7DvyBSYJvrloGTObqUN46p8DOVZs+O9bTV4Bwxw6oJjF872DftdxIZjobx6zqjig1pF5H1hA0+YzncP5+te4RFIiukbtwv5dfB647GR7WHn8+xNv76YbuvAB9knlGQbhz07pS3dGsjDm25QzJvQGThqygdSasHnd3+ndyO8Rq2XcKNOh1KCCrAiW2bWjRYinAoC0zlMi+U6gPjn/gJxXXD7wZtCNbJ3eNtKhVZ1tpQustaIlhY0vVH1bixixDO+o1uJJfi54sXXuaKJLoTgZVXLgylVI3R0awsjR3wITDbnElsMmnn0t88jjhOg3uQhY1bOTqutcHM4VJezgXEiDqe7rTTWPbcyKfNDFZXyXaoArEZqyCWVMFauNZRxyTKuCxfn+IcmIjyYNjmpMrNP4g6GRKwO2fyRSXc5QTl604xjxwYd0fDZ58ktWdd5mIlYJS5gtQwnb2qJuPEgc9Sr85qhzc5me6ITjIzb1IwR3v4aPcQQuOm6PiwR065KPoQUtSm6PuQZPDzVF6F6M2R/XDeaztLjUkzj9oSWdz1UDQjpvNVQZBN9jmqoSgrSKbqxiCUv6bqx6CJrabqySCUsibqyrCGRvv2AIer8rzVRtOfnOVh5fnq0K8PNd0nPzmqhMvz5y2k99c1eLluVc9KCzdXDXj5fkqm6BH+TZX5fhWdb6Kx+USm5qLs+fNVULBkbucxgZN6DZXIYWzInxHsXO8kx4lWy4Ip0H7fG5o9sdms26MR+p1BWNL9G3qBNWjYhnuLoi+NyzhnUmu1wHvv/BHFniorjNlc+GQezrfz+Ua1bCVzLXjI9JWxiBxd7cy0NzC57pEE/qDWwfKnc3gxzx5SdtG3H54uw/ut0+fP79eJ3f/f70/zv70evdc/vl/);lineShape=1;" vertex="1" parent="1">
                    <mxGeometry x="262.71140558953084" y="-133.56794245716083" width="189.57498191676405" height="197.50382731661205" as="geometry"/>
                </mxCell>
                <mxCell id="15" value="" style="shape=stencil(7VrJbhxHDP2auRK1L2fH/g8Blq1BFMmQ5cT+e7/GoFpNVs9rT4AAPuQ2C9nF4vL4WNWn+O7rw92X+1NwX19fnv+8/+f88fXhFP84hXB+erh/Ob/i0ym+P8V3n55f7j+/PH97+nj5/uVukVw+/fX89/KE7xe9ID0sSsH9uPxQq7TLLx8u8o/nJy1flXzLUtJ1+SjOK/nuJMcbnt/DgT0tafk0nnBFvkQtX6QVJh+Llm8SG5N3xp4uKV+X91K6kvfOiXNMIcabFNzkUW6Rk5Jv2bEb//6iR514Yw8iRuWtR3lGrN74xYyb7KldMn1+1RVTYD+pAERYZ1CqBxnXtT9jEE+en6w9i4UkH6ok7R9fJJOK6dK0f7BiJ/7xKAG94di4QpSgMSIVrpAk6S3nLI4VWbYxKPApiYFHyusiqIHDihenyxI4GhhOxOH0VSFJ60QhS9cmlSqdxBmBNoWfmzRPFLqFlrxiwT62uym1k2SmgEjrwKUslXgpwic6WTOyi8QhlkmhSWUm9fH36tZMyzP5gZ6bODAvpSjeWwUGwHBi95NJBMFQLtUoBK7QJHXrJZYaSARvKi4OmNpXCJL1CnBDJiiWk0StgNhXZlIRrxXekG1fodoCCk0C8VJGn9QFBCRmuVS8ZB0HpGMk2VqiJKOQB5/ZVyi2uaEGO9kDUi0n6yVPsLV08XqFwDdd0W0Mg6kUKoGktgHFgbb7Ckm87oiN5l6FD7V8Hum+L98tw0AcCQI0PwBiyHMC1pKFejcKfF++Doh7sz+SGLcuQSe2X1nrfkf3EkxL95Ti9QnC0CuYi/qE20s1sxWqbemxjslhX6FNlVCGkdcUyqSQSK2BJvtsTWKJDQWzQuLMEwptAsnGeIybyC3IZCa5jSXMfJc9z40+xrlVAZHjuzY9HUBL/YpAmPLsR5Fzk0JhCnWvvbE9lIkqFR7qYksaXmKwCoUdbsX2UCSY3Ch07OlrNm+SybPsA2swPL3TXgK3Br0CCoKiQJ1QoAzkuRbpNBc1S+82DUuVYuUy+06bptNPH8RodWsY+Xu14rRJqRyZ1LVJC9viCoaygoyxiQ8KcUpvRlnhVtPhcuObbnZIPFJIlkVDIbF6CHZIBMWkHQVQqXEp8RJtzbZRkDFGWVuxUAliwqCyZWsSRmnKHKJtQWjUlVETN3j/VoG4tTaL3stgysmVoazYNPNSjdYksOhC9gB+uAMz7EDDDRTalCirh9IsQUQXrQRmwKJNaiD5AmPReRwhbSqOgQAmAQMzqAd2qlSmSKMpBjb+tKmxZz7+wOKJOrC5FS3QYOvSp0mkAVtO97iD2XsxQK9QPR90ux1Da6WzwEKnzPk259IJ9aDjAFhgBz9pOu0C8DAvgUSauRWEn/WH2OyZMiYK1kXRZM0IB+Bh5CRGe+q+wAK7BfCW82GSLewcx9l7A6zASjSsGLGJA8Ol5TzNnEN7fjORLAj0Nfb7CsGmBggRa4phHRc2R+/0LqANrN6Y1MgKvljqsGyaAJnPNg5oYozzYZY3FK7yxu79IJ2rghtHQVeGICkalwoH42ZBI7VxQr0PrfZCAxXIzhyznaYTP59IAx829tNjVpvZwLDf7sqNXmj8f+X2G165kYz+76/cnOlo/BLZWZ5wcEm9zk+b5sG6jbPIDtLKWrKzw8tCQ2i8qqlgd5ChpoLLUUZHHS8wXDbJz92Yy4cb7UEF+1v2G6a7MO7PYE8uDuIVLN8/yId/8VLEgTw+vL2B8en8+Hh5gWP7v31jAz9d3vaI738C);lineShape=1;" vertex="1" parent="1">
                    <mxGeometry x="287.29895544655665" y="-94.37499266371992" width="122.09723158427823" height="19.294753867176155" as="geometry"/>
                </mxCell>
                <mxCell id="16" value="" style="shape=stencil(lVnZctQwEPyafZ3SfTxz/EeqCGSLkFAhXH9Pm0XGans78LZx1Jbm6umRT/HVl7ubz7en4L48Pz1+vP1+fvd8d4qvTyGcH+5un87P+HWKb07x1fvHp9sPT49fH95d/v58s6xcfn16/La84ccF583VBRTcz8uDlCz430/eXtbfnx8264PFOK/3FsX6bH63vrrr66sFN69v4w2H67u5eX0u1vr19d5ZLxOgYMsgAMH6bEFNFpsAZEt9BsAE4SLfzc821GJB2ICg+TloFYcUTg3R8mxDaRazAGTr8w5ldcMxoI0sWONQzQm3RmeFAucsJwEIVubAIVOz8FJMVmYbYh+ROQZU620GBGvC6ORGqq0Ab6kIQLSUZgAcLeKQssXARnsFqBYTu7WI5EtIPnJrGxVyXNBgAKpQb03UQ07myK3FotoBPpndiirvaodqbTYaCR8UoFvOE8AXqyJbkf2BWMOcMKEk3sANnjpeX5mG3TDpeH3n9VUaXB3XswcliLSocCABmsxUUJabKQat4k/9HQPW960AndrNj2LcAFQQWhqEsjmSF1FucOK8A6i5iLC1zozhdTPpYXh9BWRZnj1ZpR3SCOUxoI5OsAFUkRq9Wa58pCSM7p27j1+b9jVAoTjoagCAWm7Q2eqdYxmAglANDlu0uaBB3VJndI4c+ksSJQq/EouB9roGRDpSk0IDoS6NAaojAkA1ipaXRQX1Yola6Au5sdLipoVGVRB5R91t9Pl/BSRrLxyJeAaRVnEoo4dvqE/xTF+VzqaClAbdBw412lS27lIDOzgNoORDg0sql5Dejo1WPXcpIHJrkKL1qEZ1Ez2ggS5l7p5oIgSXYldQ2U6aSP5Gge1KzinaAB17Bsj8/m9AZC8tABU5DGAEWIN/rcuR+IHiU9q+FR43IHyzau2R5RKEr+LK5ljmQvgq8QB5QgWRUBDChrobmdIqia5JrEB8j7aoNNxetXapmErhbEVbVDZAhYbAgCJqtPhdekfZUSCkSZMlPcVBqvf5SGlN+KvDwJwaeOLUkSIXEKySA43nKQ6RUfMJRibaoXrJGjCxkVqPQ78fAzC6zl4qq0o7BgSrNK87ORAstzbk1iBbEEiF+B5+k9N05ouWrCsOesp7tkENlpAWJDZQIVUEbqmvznGQtxqVp6Cmp2lokTrXNGYK1aiXpjkDMCIo9sZEUmej0TGC2AHi3M9GL31V5NKiReYjbVr3tSuysjtTVX2XubU1KZgqXzlUvF9xAF+olSx9BBql3O5StQa+pATFKF4Fw1A5Bzkx+VEom/VeJYW5tDuPyGvHdYBKU3OAG6J/4x+l3Bw3qqwnRMfnf4Hjd0pyIS95HhoBlksx0aUcl0xqUr84jhfEhcp/Ny6bNnJHSYX/vaR/eT1+/P0i8P58f3/5oLD9P39BwKPL14f45hc=);lineShape=1;" vertex="1" parent="1">
                    <mxGeometry x="301.36444662208237" y="-63.45211828945264" width="108.58578256512851" height="19.05778064332253" as="geometry"/>
                </mxCell>
                <mxCell id="17" value="" style="shape=stencil(lVnZchw3DPyafUXxJvHsOP/hKsvRVhTJJSvX36eZLY4GmJ1W+W0PYIiz0eBc8qcfj1++P1xS+PH2+vL7w9/Xr2+Pl/zLJaXr8+PD6/UNny758yV/+vby+vDb68ufz19v379/mZLz0x8vf80n/HPTCzLaVErh39sPaUiN///y603+6fq8k4+iw8pn6fVcvkiqRj4WaeVcvoqqkYc5+Vx8SA5GPEhj1sPd6ORDIPJZgg1PjOvE+wplRW+LT5c+iEKVkYxCqZJIgGKXYl1uQZSZpBJsytqQQoKEHEfrdFMpJMcoAed0y1I6UWiS7Qk10Cgl+GDLKBcZJEo5SrFhnZluRKH4E7poIvJNRreVIZl4UILkbF2maS5Jgns+XCIOFPShrYs4aF2gzrJrZbjMTugSik1Cl6hEYUi3PpcmjQQJVZCt0xVpJj7ULNlmrQFw2AnVpw2l2gnAVMTEnlCbdBKlqiuIu4aupHtaXH/vajuTE6bFLnGRRqk1SQ6UNti/rzAkHkqjkLD2ING2W64SSFh7Ws/bopRWg9xXQLvY8kY5Mqf78E6jHBkojeBxEtXaSXmPJNGdkFex3FcoPkpAhcBMaj4PCGtlJsFpl4dAE6eHxGFiK1OIB9xTOnIVE/EwQitBPkVeLQWARUweDMFWRl3z6768emRtixScyVcLeyqdTAbIO0oFFtHYgA4bCdlBN+seHKHWpJR4THXh7qYAJCaVB4XkeKEuZnaWhe4qD+3B0+YhI4myPHTPMqCQSFy1idpEoxkiV3CZnqXB8tDWsNnlgdbGAYnjBlNnCtmahGLqLHHIq50muhr2LKoOxNpHWXCVVHkSDgy9UF4Fedf9bRl4VqiODg9pvHXc8Iyoog96zSmgTHj/+xUpUuo5TbIuI6aZN6cnt0rXGARVXesAg9kJyNqhOSlI/rRCXeR0RyYLw4ssyXZzKZRXYVI5igF6GcgJQxfB3lG9yOZ597XdEp/ndT1vU+jLqzOKoTasIE4ML0BimsWL3ug0BE1yDBq/sM1qPs/moStd0WFxdQp1DZf77FP9QEeUGOVuh8WkDkrEsCSoW8YSbaC5z9oTwNoZzODvWLzThe0ZmPju4qNT2oPadIR4UjNSGlilHDdUDCumkNZ2tykEOg7RX440oODZMAEjd/NzliM5AYy8HK4mOltyi19BW+AKcRHsPcwQk7IuTrFb39hmP28O3BodKUfH89wKCqhkd2gTem2mi3KTgt8zWqUnzFs5G6XZ02QovrOKrTQ4j5kk3rHuSPlkyodq7RS95zWXu5oMH9wGHm7S5m7ALve6p3sYewxcY/VYiaGUiBNgg46+YRVnS+u8RXLQxxsiBu9DzjQRw8/p/AEuyXA77rbQ3S9Wv0+WSlEpeYJYlF5zpbV6bQECfaM34m7iQp6xt7hacf98Yn/wC3flVRr8dVLZRvyJfDpce0Rif/B4VzJtgsNyW1BwpH4O8kC7QaAl+ME58ZLa7/wFXLKb2+CXwne0PMvXT71R+VgeH95f33y7Pj3d3v7s//eve/DT7VVR/vwf);lineShape=1;" vertex="1" parent="1">
                    <mxGeometry x="303.38597824796375" y="-20.0676266443686" width="107.45270247387703" height="14.544558464921465" as="geometry"/>
                </mxCell>
                <mxCell id="18" value="" style="shape=stencil(lVjZThwxEPyafW3Zbp/PJPkPJCCsQgABuf4+NVl5Mt27U4i3PVx2n9VlH/Tq9f76+faQwuvby9O321/Hm7f7g346pHR8vL99Ob7h00E/H/Tq7unl9uvL04/Hm9P35+tl5fLp+9PPZYffJ1yQMRZQCn9OP9QuMf375ctp/cPxcbNeJVS7Pkip++urVLt/bqJlf32Xmu36ILXvr4/r3xOgKi0SQJJuAalJHASQZViXU5LAThgS1ABiowDs17M/IROTUvEA7RIyATTp0QBKlh4IYEixPtQq2khdRBnNAwoxSYuEYE1C7kllwEW1J+QsSsKao1TrA8IQSC1hv2SLNaooiVKukpxJEkjz5C4tmfVhBuHi+hIluqBKVLJeZ52tDmSahFKkuWZQqSSmZczmWisPpUrqosazUi00a1U9Iyk4hAQJdZaiBzSSZjBcbh6QSdpaPHNaqdMtSys2rF0SOwEU1D1gkEy3MffbmDSI0z1OFzfEmhkRoxls96B6Wff0lUY3HNNI4kbwPhTu9EgybC2hulhYR5Pi+idJZYA+h9MKUNpAA1zvALxFASg2Si3QgQvAsFFqYE42r0LwzNoxo/kR3R7R1wGzB8i2IZBLNrAQ125NGpkyHwBOZ4xC6xupdlQ8wAvMB4yn6E1qDICY2FSPOMXKHkBtU/fVyD1AtC3XE031ArAN0eqcebsmueqLlMkWp60PFW1OaGOsU38FZF7fbY7YTY9S2oBAdQCl4mcpPqdlytxit7wdANKEiNylgVweIBwI4EKPtj6V8i4N2HLt78R1eO7rK1ftUpllgYVveVOrA5TZU7t0bOOKamGXgY8DkudvNHViQ2uIuhPQEAyAhnBhrbQ20MLZZXrQcsXfxRH+KgP3xINrarRcJnmAPOkOECjPtLOwLmOR3fr6VJHb6wM5YRFx1mnwDDMJBtTqAVRXxkuTmmQaYqSc8QwrvlIl2NKAWmZcCbnuiAmKKTB9H3zH5SSFnIDLtqNvRT+wG03xgzpzk2BAcxIr8EtW8A0EAcSmIu59XgANSq5Q8+6y2zu9liEmzoehlPlw53HlDS7MzCQkzg6IzQS4fAGvM7EbicXIFVfPdDaDmJpOyT+1LOXKHhGC1zOZ92hsXq/nVU7sPbVkZxLX6zGdATqtjT7vPFv9Q9Zn3w5d6SNF8jdFZK2zlxz/4jDWd5TLDnuhsUw8kuToh8+yP8lxmCJ7az/ZP/hGWEQGiWeYHL2Znkx0424UffxZZ166+nxoPYbpIG15Zg9mKV/vCBujlM3yMMt9ZdMx6XIvXx96vn1/PT78fyu+Oz48nJ6at//7t2X8dHqX1s9/AQ==);lineShape=1;" vertex="1" parent="1">
                    <mxGeometry x="322.4070147976695" y="12.829573450915746" width="93.55888612145873" height="13.59587154158828" as="geometry"/>
                </mxCell>
                <mxCell id="19" value="" style="shape=stencil(lVnLchwhDPyavapAgICzk/yHq+LEW3HslOO8/j492WJsNDNt57YPekBSSy0xp3T1/fb6281Jw/enx4cvN7/OH59uT+ndSfV8f3vzeH7Cp1N6f0pXnx4ebz4/Pvy4/3j5/u16Wbl8+vrwc3nC7wsuSmkLSMOfyw9FJcd/v3y4rL87379YnyRVv375erS+SNd5fRQrx+ubaPTrI1kfgyTzAA0EoON5KyBJMALIUmYTLErPBFCkzjvUKKkRQJM8A0ylpWMAopbTbEMQI1FA2OIMyDCauFWz9DABUh6R3AeY2EwMrWPPfQAiPRutQSKJQ4oS8gToEjpZD6r2eQOJJAoJYZtTIUggREpt/L26SEI9Xp+D91AdubS/Xn2QuzRy/py9vaB6IRHI5jcA1SsDNClzyED1RjIBrHSZEI3mGoqJKxfYgTmpZGnF2xBJ1EqT6HYI0knBszB8MgB4AjmRpcHi5/WdONWKZPUWGDtQFZsPhHLQSSJUlMiZqGBSJrlck+TZhGTjEfsAGy5cy0sYZNyv8vh7zmWw3Qi52yaZQffOdATCM9uw0J0Bmle23CmTOojhlEdHhdoHpCFMK6DwHZo3GsrDAgdAdwDUJMKl3qXMRwIdGwkcAG0OnPVRNg/0OfgyWbMoqQHYojv5bNI4oM47gC2RW61zqJuNynbk1zrzG2xhAg1AmLWk9fGIfUCVnD2AcsOGT1ZApYoOQI7eS5WF2nylrF2MxQG1fS5MtQw3HO7gIh14HGDDHDiz0ZwdARyXkBCZBa5KcfxGv8pzNDYPYA0xAM2lnEpigO5rpUH0OL2d6hoaTGYDMs51JkobgQUw15mKXoYFrnujWxzV8wjgehMUdBrp5iUIKfpKHHS2ARlXGFvrGFxeADLpBP4fkDZeykPr9wGgWvNuTYQaS9lyGVdp74DCaJvqzciHEye3g46U2gdE31Qu/QrxUt0EDvRmTSW6Ey+jRqs3TPRlpozStg/QzYiotNzDRCcopdPuBCZ2N6cXDig+RXOloojC6IpA6oMs+4B1Cl4BibrVNp0AZkolRyp1NC8roFJBWfopZ0Oj5CubuRhGs9l+mWhclxjpVImZyd1PAMByOhcfBwDYnItJ3vWhibf3eF7N3q2svV+I4NzKhR3jgudSGCPFPiBLcbN6pXFIujFaaeuAAzidXuZrsgPGNnMjCk9RNZ9x4C+7idIiOpPP1pbr6BYnzzYsxZgB4vh71QelcYjN07tn2i8tFwBu/g782iSmcSmxblFoBsU4rj1eiBzLIAz0vnGto4V6251jNarTmzvNuubs2+5MsZ5Nx5s7WaynV5p+rlxoQc4T/AyHgb+T5wevbtC7RAIQ/HgFuVMS4TDq25oHlSrPRkeMM2i7XimpN+eBOLNmdWMvEp/7x/kTusX94+IF2aok7Td8KDoq/tv49so7gNfX48PzC4dP57u7y/uKl//7FxT46fJyI73/Cw==);lineShape=1;" vertex="1" parent="1">
                    <mxGeometry x="316.3745953257394" y="29.68828658617008" width="112.00887538742882" height="15.59580335282942" as="geometry"/>
                </mxCell>
                <mxCell id="20" value="" style="shape=stencil(lZzJkh3HDUW/prcVOQ9rWf4PRYgyGaZFBUVPf2+kO6req4t6p8hdswlU54AELi6Q+ZZ/+vPjL398eEvhz29fv/z9w78//frt41v+y1tKn37/+OHrp2/201v++S3/9NuXrx/+9vXLP3//9f3ff/yyJNdP//jyr/WF/7zrxa2mpZTCf99/kbfR/v+Lv76Lf/70+1m8nMTrNiqK95P42Bp+vYWTeIxbwM+3fJbPW+4oX8/ydWssfx5+7NscKD9O8ilsCeX7eb4pbR3nq/J16wnl41l+3GyXyOe0hfgj8nVL/H0xtrEFHv9ZvoR9B1/Jn+2h5K3w+EW+bSH/iPy8kR9ne6tpSyB/rPYhb/Y5ST6d16fOLYK9JT29LaF9pm2e7a3VLcL6H6fvkB9bgvOVt3mW7xG9T1F30hvaT9nG+Tz2sUUYT92t5XBXtj5gP+b8RL5uObyWb/vqHfJ9y7CeTf3JmFuB7/fdu+7yM2y9vJY/rPeQTzieqes5M+5vDLpAs/CBdyfGFNAjmomeTXpWdrk2gKkKnc7w8b1DwbYRFjW2rUxVyBT1urp1Uyg0h+Em3dAuVhiKqoCOKG6l6yrRyXwErieFTK7L9kGWtaCtrsPpjG+A8dnpGXIa0h6vrhXGfngPBVsGsFY7DxKfZkB/kaPa0hj7kbpWSOohzWNQBMxF92GwLeWmAHBUVnCrNAqCEIvZoasCGV8xJ3A278Gg1KJ8napQwZaK2WZUBQIKhgumGxJ5yjLUWpcCTXpuMzsFONM17kf+exXM+rsqJFjW6lzlUqBwWC+GhPG2XWxcpDl0RWCmEGCnq50vGZIdKZr0dMZ3oKDrGG0htqnCgPPQXJZgCh2GZCCtOVjSaUhm/VkVKO9qxW3c8TevFQ6c/6RQYafbETOfFWDjWt8zv2cFWtYjlfhehaloeynAEe3h6i/AHAzNBresGXxrtwTA2RIB+p4dooy7p7pWKG7jIqYYve5+7kmh0Co1TQJG2Cb9hb4DhSeFArZkIF5gejfnCdZq/12qKhQY0hpAUoUIkx7RKYwd+l4rHIbwpFDhTC/X6xTI860gK0Ni6GBxPzZVyDSHpumD7T3ttCloPtaQf3mAnSeFTJOeekTNfhscoAXYgioQhWGQUE6cHSlaVlOYQxUoBzKUKrjV3AKxWoaDhTYzT1Vp0mXL51Uy5xlhpw3LR1Eo6DVWtnCetEU9gj8rgTl7DYvclDTNw9SeuBJyArPrKtW8z+paYexQ5FAIO5h4pZCEHjK4QvvgFQomrzaHfo6iBq4nmUbbU6SDceuIZlZuex6SJQhEwU7nNXLmSWcllVZWRENKCqUtUaM8zs60QGlLBYmmMK+Rzsu6slMwPvNL5TxpS5gnxYeqxpcCOgFz95LHWdIfybdG9RrxANevYpykZbFiDmTxRiJQ5Dyuu9Qy5v1vvgInQhfFiNa64I8UAALSRYbIqhAhuEiGEcV5j30jX4FQQd4d/aShXDk9DYOJ4e6h9Rea73LT4sP2nO5V5iCwpCAqWfyxOCTkxiwKRPFHmNlbciUsUcb1t6AxVZ7wguWTwjfmfUKvEtam46dTuTLirPKwX5ZyqzfFwGw5/dDv0wlbpIF+Hwl0Z/8J/dyiParIE0dX2tanytP3HRBJ+wdeMUPqqHcS5BX11HX8dL4WtxVVHuwnj51xeZKH+VrwbW6+JF8V/ybk5rJjzm7Gn3Zzf5KH85uDnq+EEOrhjp/kiXYemnexfZo7FsSVsKBr7lgosIwFP3N/U/1DoO9nxcnmf4g1vzjvRLusCqSALebMg8aXgtgszp1Me4oXVBuZ6t8s5MN8DfQUjV/kn2NXAqUiGI0uT6mIpw3xyPo03F8DPF3lyf/HpPikIc28+iP0++Q/DR4lxSeEBzxxwrzJ1oqI0+nquvgDCbuitm+zIXDlsM+Sp6qAElcmTyloUV84sZZTFG9PNOXiyMbdNF6J606R4RfHYiDv7gkDdDtFUXDbuagX4l1BMIIeZVW5llm19tmQHKlqBR2Zv6q8RccAV7U2PNBfmrgUerlio9s0MX2qF9kT0dNlJ1ieDxShI9c+FZCMKzpbk6dSpOOyTZ7S9rKb1WN5iGcuSm8OxDoX4tybIoPp++Z931wbAsGijrshlVu0JNWQGvtB8eZBBfE3fauKESinHFqgYEg0lfDlDOhhUg/ESEWi1fKiGRN5J4vg0rMTt8kIQaolERfTI5CIyxN9lMWguRBU1/HQejbNKCOequgypsi9Ma6nKaLLjK7eGxnhB11PJoV9DyNz84+E6iFPCHAB+izykTIml6EEnq/LgAJnNC7DChg/fQYXuIXRZYgB6zU+Aw3oCX2Gy+vvM+iAxRqfoQfsk/IMwI28Oy83Md0xGDx+z5DcgGTHwARk5DzDEzguOgYpYAbtGarAMNwxYGyfnmEL3NHiMnrGMJ4hDNiiXR2EDDt8fslwuvPOHTlD1wfHPzUN4pa5FpQxNv9JjHfcSz0P+UnYJCl8iNySm11Rgxls15CXdnhzLd/0PGY8X63vx+mBlnD8Q7FbxR7HHjRJaFjI7a67iXFtPwivB2zG5g8XvyZ2KnXH2N+ViIbLQrgINYI2WkTuSRvJVd4KnoGRtdYdmdYa1RUDO6LW0RV1GC6iMDDmjmIOs47cpBB3Mz4UjshwrZBc6aFiE9ssyp2tXJwUqjZ1GlhANsyxiwstUH+960nLvNOmoDdkGoanOTXcP/pzXykIXi+JKdUQlG+xGE1FU/sTYq7lpulg7inP4ZMYdJmC7+UgVGQKwpNaXCTiebpCbr3t5ZBKpUU6SmzMmJTqTej5ZtsHcChwT/6s6irb5GWtat+dyx125CQ49MrJd9bG69654yVpeDD/3GhI8aI5kBKQGRzhN7HGPByDYAp0q86cq14TYgxsCsr9Bh5SU5BkClTnsQChUTcyyVK0MWC1PJJCVmLUFDBmpb3T4FBg5mS4u6gjIUU+DuT4pEC5e3duZnA5ftmmv1fAva8SRkfBdqvVU5NVgU6cHUjJd2zvCZ0YwBJAuS61kULWHpDV7URzSK4XvCLntfqoxZYahtGLTu2G8eGiF5xvVF10m98o+H72GwXfMX8zB9+Tz/fOLrr+mSW+uFfQkFy7uLnAlaCLuxENb5Bc3L5onG/7+x18h/TiBknlGyT+jgpjjYtbMBVvkFzcs+E2sIubPBVZ44u7QnxT/uI2UsU4fXHf6UbB36i6UWiKKgcnEOtWmBsS3mzLWu8ejMjWzTbZh4b9YyVcOAGiD7JrmBgdA8riF5sqUFDMrgo4+KpDdndUJlNWOSoSMFBHHO8qc0qZNGHR4lF1PRQyZiiP8vihUNFVpqqOzOA7Wesq8MmQuHV0tQLJX2DmZBV+RGGi51vMXFcFAljRdV+aArXnxa5k41O2ea3RFM7calTFxnOi/47uVYI1CyrhJU3MJl8vilc7QUWbVQeXVpOBBj41CZpcjB5KaprxUWDvF9ZNM26u7brihOvF+SRWozgHwHcKirv0PJBVdnnuCiXkwpTGuXlIwvWxr2Z78kdqD4baqQLvLgesG0JE+mgkbB1Z/aBtgIYtycUHRTyG4wqsf9Dx1IatYkFDTuVLvJ7i4oddvDw/HOOKbDcP03h57rRx+c7Nwzpenm+9eXl+GChoEf7m4SEvz8grKJ1306cdNPm6eZjJ343hTsag+PrmYamgzT83D1e5IszNw1hBi4T87lbQmje/6uVeE+FLHK7n9G6uQk0lvNcXlJhKeGPFRVK+YB3cC2PIVAQtRkdsxw2aobB4VBB60yrkbrXhVH2BBhcy+psetE0O09+91Pajz9KxuP3weAHvt0+fP78/oPf8//pinv3q/bW9/PP/AA==);lineShape=1;" vertex="1" parent="1">
                    <mxGeometry x="281.96493977147156" y="-107.03701208223913" width="135.37254886245955" height="43.42361522485862" as="geometry"/>
                </mxCell>
                <mxCell id="21" value="" style="shape=stencil(lVnLchw3DPyavaJAgs+z4/yHqyxHW1Ekl6wk9t8Hkw1Hy55lr1Plw3rEJkE8G+DJPnx7/PT14RT129vry+8Pf58/vz2e7JdTjOfnx4fX85v/OtnHk3348vL68Nvry5/Pny////ppW7n9+uPlr22H7xdc7+KQ7Z/+2L90+/fLrxfA0/n5GlCl5hnQJHUCKFLghCqhEEAWqzMgS2GAJKozwL9EAoiSbAZEiZkAVHKbASqma0BznaQJ4F+MnNCKhDADiiQGMMllBiQpTCSVNhvOt/jvzJuAWqX3GRCkEkvXJB3uoBIYIAy7DkBt1DWKq3X2pequQe5QskQ4IUpLBBAlzCeULoUAchedvbUUiZUAyuEEd0cGMImz82WupaxD4h1gUkhMp32/AUidBlDK0uY7pDSC9jbAvXUWybpUdkLAS1seir4J8P1AraZSiZasouFikU4s7QLACdFoEjA33HzpqDTiLIz9BiC4kG0NiH0klR2QJDFAlQQnRDESojFj5gs6ovw2wKTNScDjh9gtRlHIY5KJY7gKbc7de0G6uT60cfz7+kCs7BqPCuuV3Dd4KOD+StzODYQ5TwKxWDA0QBVj8kfJGdaz8ryZE+Vp5L4dI7/RmuBRDv7m96HbQ74OnSYWP33WTkyjai3WK8SwS0hSY5E210CLQ8LbuVfa7J2WpJEckdA7PY8pMxdayzN1Ze6D5MuLQyXyhMGD9vWBZiBF78/7l8X6fJCHpUTFFOq1qhH9K2aTVKm9FKmjlzZWjI/7e2kl9lLUZ3KCQfTv+pn9J+md+7aG65k+A8aXcbofkEqkPf+u/HP2h62Qs/QvMaB+CknnEQveRjyIPBF7iVRo+o9D2iv/Yf7s1Qvk8XzF0r9UoGZKab4zAuB+gTIzRc6+rafxVewgD93f4uG+dD20NZs+6XqF9YXSPl8P8ZKov7k8YN9IuybFhmPzZ+Jv/3f9gSI6a43EXgmZ+kZaif/kw/q9WV7UOwPKukf07RYO62lo1H8qdq3OV1g9asi56zDgYnkGTj/q34qdzNLoOO4nuZJSZR65mNJgOXI9Lwds/wN7uFPcs3SF9TT51wMbo84cDmws0OIY99z3bi7GVbfsPHuDjTHLqhfpUB1pS+jRAv5Q6PzCnRHYVR0zllW7Btk2KM3OdqBv7lKsm7KDB7nNGb/1pjbNBcONyALe22aYnW0xxu7QB+G/SlmMYnnGLND6K+fQNrz4albAiqrXFOjxnNUwluukE2lZGkKuRjDoeX1k+tWQJ0PhNqlErbkcmEHllaDjcKHw6CwRO+2SR7VdDdtg6Fkazdb+Z7h01dFvrQaGDZpzG2q4DchYn/wL44u1jfZrB5TR0q3GqsB4ty2IpZuNwdcOuNPiFjRc45yuNRwxtDgUvRpvN5hWO89gjwARE2XLlLb3hDy8VWqHfkjFrdMQ7RWZ43YrVvt3M109AjDq0vsoxjsgUUs7oGQERHaHjvWz8zTjAGj/XG+MPm6POwUBrGQFPXTIvQxW89OIeu/aEEK90iHOBoATGh3Sb3oCQB8lYGm6igDKJDtWiHchVwCIiCvFrRDAfu491d0H+I/3l8Ev56eny8Pi9d/xJdE/XV4h7eM/);lineShape=1;" vertex="1" parent="1">
                    <mxGeometry x="175.01275401391808" y="-121.19898274045613" width="100.77102170545504" height="21.48618674849945" as="geometry"/>
                </mxCell>
                <mxCell id="22" value="" style="shape=stencil(nVjJUhtBDP0aX1XqRb2cSfIfVGGCKwRThmx/H01cYyy1/RpyG4/1prU8bb1JNy8Pt8/bTeSX18P+2/bX7u71YZM+bWLcPT1sD7tXfdqkz5t0c78/bL8e9j+e7o6/n28XyeXp+/7n8oXfR1xgimFBRf5zfJOI+d+LL0f5x92Tk09GvlISKJ+bkQ+JcoCAwgYQmQSfUKIFZMoRA6wJsVHKHwGkSAk7yQMKxYIB2QDyyc/XANWekCtFrFKrBiCJUgWAQGyJIY0aUilQsDaUTAEZrQCxVFI3dKyS5VKt1BGXFFAMoAUSFGkFdAtoxBjg0qcnbHSkZundOglyayWxJzSNNAicJrA4G/KaUpcBfQAEaiCBlMw+Do0qAGSlmrWhCiwCwuv3ToC4hvIyoFKxKpW2vrkIUG6KY6tQBJFWbmYHiGuGXAYIFZdAnRgETpnT7QnqhgCo0YWSKwKdOgIUquJPYARQ9g8AVFt79wkkAQZOAbV4QAOBC8xrgzohNKdAIJYjhtJXkdWdgoucsgUZ0XxCiKx14WogugcUBJC1WJ8BKgIomQaAIEAcuCGYG6cicealhLihtbL7OGTQ2RfAEGnBJ4iLQ8Bu1T7uAAybnLrVVWMFoM7eMzXL7yVHEaB4L80A1c8Oi0rIrVqsR6NxUsuQ1AIatQI8+SLlCcBFWqmBU9QHLsORTI3Ors4ovZHRdW0H5wmETvgoQLtssAlUEpyltaO4qlEK7Fml+zaqb1Ah05bW3Uim4wzoWVJ8g6gFFmMlM1uVGsNI57gWlRPgVNquTicOUOEJiX0cOt44dL8QS+8+maU1TJatb0l7mRpULZXOut7lE/ywrgeglWbooZOxdXDRZC5mP9pPBu/h+5PJnv1gP1kdeJ283rmb8NB58PLDq7ffuV0p560+k/WNPeMm++EgP1lA2TfOyYY7yE9WaPYdZLKjs5+dJ5cAwzo8uWVg6m6DwbcYPl0mlyR+E45r/l8RF6c83tdW5r6JI2W0pFvXM5wDh7mRcQPw9R/XqeJ1x+JDS8XKNIrxA6Z2rzt2ZPcrJg5TGGrOhAX/cROH5fXh7drvfvf4eLw1PP/fXxPqq+MVY/r8Fw==);lineShape=1;" vertex="1" parent="1">
                    <mxGeometry x="172.09683931266363" y="-123.21010123665246" width="18.593162812409673" height="28.319192405347962" as="geometry"/>
                </mxCell>
                <mxCell id="23" value="" style="shape=stencil(nZzJkt3GEUW/preImoe1LP+HIkSZDNOkgqJs6++V5TbQDzfxDtzeNR8zgRqybt4cCi/5h98+/vTrh5cUfvv+7evfP/zr08/fP77kv7yk9OnLxw/fPn23v17yjy/5h1++fvvwt29ff//y8+u/f/1pSa6//vH1n+sJ/37Vi1voSymFP15/yGGL7T+//PVV/vOnL2f5dpavWywoP87yc0sT5c/jKWVLHeXLWX5uLaB8PsnXuhV+fjzJt7jF8R75tpX6Dvket5rfMf7etsjPP69nt/XB5//3abv8KPsbL+WT2sOSh/HkrYezfN4yPL9sPap8BPupW89OHuyzbb04eRhPvxh/jM/lx1a7yqM9h/1xDwqdDM7sJegOVDphaRuyZbZopGAnUNa04x7HurV5VhhbJpDoW05nBbNSWqWxpbOZzrBlgi1DnTMOzQOZru06bDWpwoA32MmZ542baV+Ga4W8lfOyzrxVWFazbcGKWbZMc2j7Ih4KFcHLrLVEVeiwceYskii0/ZdrhbSfxgeFRgpFAcwUJiyr+aN5Nr7Z0aPlvs2kCokgbG6zOwUYUkluDmbwMOniJ32ckGuFpm5hKRCsdgWBO4XpzkPHM12d51/7AG+oaXdMDzs96A15m0MVyNeaq1fUaDt9uFaw54ktVfSetW+tqUKCjavD7UPBSTc7cUEVKhAe4yvNowZga8tbSE4BJt2KeqClAPtglEjNu+zAc63Q1asvBThxzay1uFWCIRnrUjBmL9rzvq8PCmQavThrNQUaUtv9/qMCbFwfF5NuAPcjKNm7saUR9xE/KBAbG8mBcd4GvaE4/5DRsY/qFNKO588UFL0TRgBGdvQNEV2WkZ0gkw5IsIzsiIL9QiBgzyvCWgcyARux+GmbFUGlrYlwjdHwxK1VF5JoUElzOFDogejipKsCmVlXAtNY3kCYcURrNQclwaQFS+R2TaGcQWAdWgABUxjnIRmOkLXOoV60h/2dzxTieUgGnhHMeylIxJrQT68hnRXq3D3G00mf52COmM60KTRRiGxLXdHb+M2k83CsyUOagcK4NypyKFiAwApFEiv97g3xPIec94ji2XkYZzDON+Zd9cRZgDDINIpCpYXjxJeWVz4bn0VFg0wjK5CtQI1xqZxNw2LHREOKOxU5FCqSE8NWoaEW/1KkaFgtthSPpMgz/5Bl0hHj6eFgJgZMygyPfHgclhOVrNJuW9fyeWsCMvsPz3jDODu4ivIGu0OO59aJKnV1DXZ0YAd6VRKd9wW7lk/Ke8zb0XiCQuThHZ/xW9ngvDOCZ4xb1idj0tAQXfIrBZ9fp0O7Pe31LOzJAtgcGxalhRXt00JDydI1DsOC2oNhL4y/jJ3rv8kT2SnNP5+ovDmXLlnYrYP9l6xZ1Y72X+Luix7OL8zXZzBMHtYzD4Xpjrmw3DQXdlCAZzkb93xyfSspFFSeMjZJs7BMD8yRJsVPTIJPpXUDPcDKCqs8cYNlvlPlOVOoZByZQSrq8wZmLQxuNF+7p4iv5X2VAJl7Ci7rj6zASENx4+f0cXyXfFO8NRdORabqsv4sX/x6Un4wZqUcg4tSyQU2eF6irzIh/kfn7w5Cfs2xdrrzAM9EmFyEgmhyJGMfnAUlW/VsNSwYHcziTTwQVG39LF73DOET8RZEnIAhK44UXPes5DljfuggFQ8shseuJImC57y7nIPUYvhf1ITN58FgitZ7uKzqUpgR4/iiBa6EBlx0qmm3iifi07FTQCcnXhC8yx6RvYlTBqK4WHwvBDwRL47Z4UKmM5A1zD0UxaWGoVnWqVamRWrAFVHYHQ9Oz14cPlqZrJSO695ZGWnC9ERWQhqZEClfjMi/i9KniIN5p/jBHR6mStkkxXdDMapFB033ZvbF0csTqMak3INzKubrk8ZilL/wXOKmHcBxlYLu0nOhG3nHtbhO4rlcwdyf54pcVvFc9Ob5juvyMfdcunAbgOPqR8vL/xgLFHQmPtYoWIzwsUzBXJCPlQomFX0sxv7Hx3qFYz0XSxbuF3CxasVYz8fCFc+vj7XrXv18GssrBaRczcoVqNciyliKZ6TkQ0vT3EhFwltcFZIL2jXshdkHDktF/KRNLZlzR0XbOzLS0nq0Zrz5C2LsdaorTbg+LSnliVi6a46vBewHW7nEIPKJCtkudguYu+hJuW/YD+jTXGsTeeom6K7DLmALUp9aV4/or0fS8xIxmlxVSd3fwrn0Ih2ymBsZvrKE+DBcu1LF9R9Dw4OjAH4t7/C/ofyql5zHM3A8M+2p2GP9AyZfVo1INixhL8f0wVzBdOUqjIlCxzNgCtOVrcioZ9sLnocRmdVxNVCaP1LFrp3paMFy5PSGrn7MPHPhIqsAnblaarWeR1LqUJiYtpyuWbYkLuMOrSuZt8J649Q+iOV+qGY6NQwzf1Jplaa2KlXOXZqCnOcW94V+EqAEZUSG+VjSdK/o/Io1a6k/1DsFIYGrGYl3ThrlRuS+BtdEMLijax0IwaWGVdZVgJckOzcszoOIHgrjDpjkQIzJTQRZi9er84fL49oCFrn7I7rOupvuj6Dhig2S+O+aousOpJ1e5XHftUzp4X6hQJTNDEFc0Np7GtJV4yiRyFFcd2DD/ONwLH5yJ5Edl+7mQHHRavbz/biURvfthB2Z6kXDoikQ9fQtkR37QC+aLrnQcNHW2Xd6ds2ep0YjpkBH9KI1te9e7FrBN792tNbVXhtVgRhxy5oqX+BJczi6qx4VqP8guNsUgxuph1ZNTIFawOpR8H5QwJJ/2/3NgwLx+tWDJhs3EQSqq0CYArldH6kuvwqmUaMWuiZzuIum/InJjou2/xsFf7HgRsFdXXjgK9ca7nbEncZKqbT3aXR3OYenkX2X8OS0U3Fd85N7KpLrEp7oIrLv1p5cdR/Owge2VVikp+A3kOwm14e0cADOUMqa/FhoSXOIe6PMgwKFx8lDU+P893At6swTo78vVPmKZ1OeOAuahilIivqNOT7L+UttyVgcJW1jdk6Iay4xavA3j4soT6IUtaXV5U4RgWPfg8mDaxHhHqOmac/BPq5eyHMlU8jPkseCnbaUDHQ/7iaFyRONjup8xsD5Bi1+rsQRnP2gjsFYNdUtXNB6c7E4uMZ3vrgcXAsrX4x2Zb6bi9cOfW8udrvn31wcd+O/uZju7gnfXHwP6m5uLtYH92EAvrjvnn/zYQC3vzcfHggasxliUB7crb/J03lxN1kXIqE9S87Q3C1BbtC0vMlTndjdP06cUQnK4W/lhWDfjkeY4+18p1t/Wk/3IYSb/YoaMN/Yw//xoYsbefvj7asav3z6/Pn1oxyP/69f4bCfXr/gkX/8Ew==);lineShape=1;" vertex="1" parent="1">
                    <mxGeometry x="291.4310037022651" y="-70.80977699316668" width="122.84570812539368" height="37.95679037591242" as="geometry"/>
                </mxCell>
                <mxCell id="24" value="" style="shape=stencil(lVjbUlsxDPyavGoky9dnSv+DGULJlBImQC9/X6UZh2M5Z1PeQlg7uqyllTZ68/p497LdBH59O+y/b3/t7t8eN/plE8Lu+XF72L3Zp43ebvTmYX/Yfjvs35/vT3+/3B2Rx08/9j+PN/w+nWuNYjmeCvzn9E2kmP598fWEf9o9L/GFODu8VoBXas3jFeCFijp8aOv4WqlN+AzwibK3J0SAD8TJ44H9pVKY8AHgLRw+/kEAninFT+BzpjL5ywAfqE33A3xqF+KD8Kmbu+Ab4E8Sz89EAvIbC9XR/gz5E6PPV6EG7I9MuQ741gl+Ea+FZIy/BEoFHFCqY4DEKAsYp2YRjwcaCQipeegoFBRyyFKUxxyEs1eXD4gnkQoJ8MEs1rGqaIJlQjK10SRtsA5J9GGN2uN2+UCgOibaqNVAlMRcHPOQAixFVnlHn1OGLtjPj/hsmQelOvus5UgFPTVKI1NzpQTwdtvobwmQd9YJwohP8OkbKUf7rbYqiGfwtLbaHVHCfOWyXsUQr+LxqFUKpdHfhkujUB7z2xJ8ZdYpnT25W7h2v6tc5Zr9zp5KEdrjOplpC2yPBI+v4M2zr+zCTAwCyr3QLn8A4lU9PoAAMUmcAgTvZ/UJQIQ+e7dIMKrT7KXZkUDQHteKjaACtApTdAlTUkCIuVWauAAPnn2Ba2cxskKgoN4eVHCl032Bb8BfezDTA67QHlcQLf4NNbEJb+Ia9TDKLl8VaiHz1/GzdYasxVM8PsP8tul+nF9f4BrsqJ/Hu3hW7RFbK1hO+lnDA+89kLoGFvs3Kw2Mx/gUgQ1bu/JcNmDAnzjhEzGwJ/v6kAW+3+Lfeyo9YpdnJa/JkkJ7hP0Di7WLrjVN5iyKeFo11RfHEJl+Z3Qg+zdmQrSgN9+6iwupm4G+P77isWp9xHlNfbu+akSJSAcVP9JIgwdsgnDq20YOpERVp5FD+pi5NgW51lf7W12bstLoQoadzGggI17hVGZSvriY9iCvTqGj/QK3ACn5qe88tv/nFM1QecxT+hX8tAXA+HnLcAU/cZThVmXekjCM57yFYbhVmbc8DJXTvEViKL3nLRXDTjxvwRgqrXnLZmUL8HPe4mFlbPjk7UHKwPAl+HiiLaEJbY9P+P4mDt+u4Ed/z1pnpdNMWlrgD1w4EODwM1uEh8nZY712v4uoUsV4lzE8fM6MiFAbfHpvfBVvHz6W1A+7p6fTjnv5f7/Utq9OC3G9/Qs=);lineShape=1;" vertex="1" parent="1">
                    <mxGeometry x="183.61373720086112" y="-42.926744803480005" width="105.0869675223048" height="25.43804934639661" as="geometry"/>
                </mxCell>
                <mxCell id="25" value="" style="shape=stencil(lVjLbhsxDPwaXwmK1POctv8RIE5jNI0DJ339fbk15FqUdxzfNs5wVxKHw6E2evf2dP+63Qi/vR/237a/dg/vTxv9tBHZvTxtD7t3e9ro543ePe4P26+H/Y+Xh+Pfr/cLcnn6vv+5vOH3Ma6ShiVI+M/xh0iS//3w5Qh/3r2McB3gjaogeJIBHjIV+PqcBrwtpwaEL2XAq5AmhK91xDcKcD1txMdEsa3jG3Eb8IkpMsLLeJypUIJ45QGfhXJB+DauJ1cK4P2BqcUhoCTKCgLEZ7gKCWBEiKRjymqhAgKEKbiABM9U1G+6KkkEAZVkrIHKkKVGspbHUyqwDLR2lp0CMK+j+lMqoVP3ckDtCzjLNDrWFCmM1M4406l5pTDuKeBejhTHPaTa2XU5oFEeyZcs02BJdohplIskFED5F1uAUzurWLAkI3NxAZkYJK6pVwxNcNMtXggQ9IVMYcy0GpeQJhWS6QsMqNFM5LMPSEhlWi/5U0DGMtaojCWqJgJQl5h4VD5TbgY1ap+oo7RGk2K060lbY+h8XDumOB5TNDFGmSsUHZn0Wqol+QAFKtBSV/ezgIC+EImr3wM8JZ38QiBF7BOq2echoC/I1NNNyUBR25LY0bVc20NxXLKDRvyOXRnPCiKiY01UXICVOdpDpsZTAJA+Ix+LX5JitrqeZZtGWtkmNdaTkKwFtClxGatAc6d0esVaQJrIh9xqm/yh0Vux9N0WUE3onOOTnsq1juK7Yu7SdrlnFZ8468QBZLqoNxtLowYlak6BXWfPUFvtfU5brXVDs2Gu1vkfhWy1Q4xjPZQMtTUWvwfzcEhbLa88aqu5RGQrdWqjlvuMTJ/0HnialbDyLT7UDVcKzYYEb42XFgMybebbzT9njXVlAGL1X2CgGsk3dpNztAX1ImPmXgH1AhU3n5Q+kV7Es8dfYepkM5YBC4ie4V014wGO/ahxZUDkqd3iAfTkcT444DIlJ8F4gOYbB3T2enrlAoB9D8H3C+xHPXx7Ebw90l5xK3Dn1wTahOCHiwBtiHRP3eHcTcNKpWhycAGJip5ouM6Tv7i4Bm+3LCZ7O4S3Wnq7+thBlj7+fCxNprITCdAIePMFGYbbw/+7uMfd8/PxKu/8//7uzn463vvp578=);lineShape=1;" vertex="1" parent="1">
                    <mxGeometry x="177.01082222018977" y="-30.242030559726345" width="24.268542131788536" height="20.676285029417386" as="geometry"/>
                </mxCell>
                <mxCell id="26" value="" style="shape=stencil(7Z3JsuS2EUW/prcMYgbWsvwfilDL6rCsVkjy9PdOuIP1ijdRB/288kK7pxZvkQQSOdwc+CF989uP3/3y8UM8f/v9189//fjPT9///uOH9KcPMX76+cePv3763f76kL79kL754fOvH//y6+e///z9l//+5bt55fzrb5//MX/hX19w5xHiBMXz39c/pPbff/jzl8t/+vTz7fJ4vzweodDlqdwuT0cfdHm5/3o5RqDLW71d3o8Tfj0cZ7tdHs6jZro+p/v16UiJru/9fn09IqxlPPJ5v34c6Xx9fTpOWft4pE7X13G/vlybvbw+H/m+nLEdFa4vRwr368fRQRhsNUQYwtFgv5r+fkpHhufp+vwpHw32d+j6pHI0eH4TlyGAemQCRCf+9RjwBiZgTQDtOnBrgO1oV0AmGa3Xlj4BCt3BzlR1gAqAceThACCmdoxHUEClcxOP6O5AamWehHwH9Gtn1oB8DNmHcZz0Dibb93fI53Va14B2ifIDEI4IG2fSXe7aK8ejEcDE+75xOR8FjkM69Tzket1zDQhHva9S7tdPrAHxkpyHfj9RY9iBL3cVWdK10GuA6bD7PpRyFLpDUVkq7RikhOsR7rJUzYTCeZhHXgAmv6S229HuolHzEekO/drXB6BeamENMDsjAHtpAExhFsBA02OAdred7UTRMOmXjWtmHOgO8TqQD0DcAcRbaOk6IWtAUvvf8pHoHfJxFgUMOEAGkCPaCt+hXILwBGj0DuXo8g71OEG87cinroBAj1Sv4/IEIK8nN7fT9TL0rwDdPVIiP6ZfbtozAFSlAVp7F2Ac4b2AUt4J8MtKANOk8V0vbYDyXkB3j0T+WAmqNQxAytgA0a0SeQIGECtqgA7nwQBiRVtDw26AdiqAHCwD9KAAUgIGGPJIg1/aNN9947rtDO1DVBeuRwwEitOtPaG6N0C4r1LPlxH7WkC7lOdLwH1Zez86r5ICxqVHvhIwTrSi/h0MkEn44hWePgEaaD6/cQag+GEC7iduhOsnXgKCAgKLt8RAXwGo73okA6R3vXTQ+GEu6wbgN46PaHcbR0axOCpgJ3zukUy802aV7qqy10stfOXG2RHNLN7izZjW2OilIIDzUp6vAOrN9B0g3d9hqns+D+IZm79EYZkBmmhv5hwMoHY6XP7+GpCUcJueMS1rUhLBfO9KG5eucPsB6NfevwKIk2gA4gRKVkVmAKIBDZDuOz0DDtJ85hknBaCqzKo1DFDpPBT1lyaAhK+ov2SAQstaLlfkGUAbV5XM2QOEL90D3vlI7dJzXw9YrBID3vlI/b2PZMIc3gnQ88CEVBmq+QzQSZaGUpXzPNABGhqh1I4WqJ7qwhmAbFx98P5PgMaAKoBHVPQKIJ7AVGRwpmvQZIMByJU2gCyr6dYM+2AAeQcDdNAaBuhiUAJqvurMbgtoUKpzQw1AzMlkk+QdIpKbBhD2p6UtQExWRs03H0lCy4KhZfVkTkFlXIOSahNAjxRc8Mpk/0I0ysX8vQS4ZaVwwADKkUUk+6tzpQ2ASsDLUtxu3NB3IG7GAEL2m2hElqXmNi7RsqaLr3omEWhZkzsPDeMHA6iTOJCKN0C/n4d+or9Unb/UA9oHA4jPZwH4SZovX8flybuPtKxZFVkvmPitxXECFeOHWpSF6+wvGUC4GYuBiNE1gOyDhWUnSWt18XRgaa2qKsdD4F8BxG8diQ3KIyH4AJTr0K4B7YgSvFZMJ0xnRwCNz3Rzy7rxNbomvwxAiXUDSOLIAKiMh+NmzJuhOwy3Dw2DpuYKGwZzldNRuEvr3Dg4QGbGJfllolFgH5pTxiPgshpgeNYBVGVzFQJ24kj4ZgLEKQEiBme4LdQj5+SnVRbajosumjuiPWIViAHEipoyJuakNd24/kiHrQFdw4HGnvGkPcQTYPFuLoFnD0nOugFENAxAiVR7xeqpeLBxtog+6ULKuDvqcZP8mvST8zUoezwlpyqASDWTTU1YJKxQMYCuUkJlbEY2Oo8M71DcS0cMabrLT7eIfKsBNA8UkFQzgObjAlItZveDA5Bn3JvLvAYWjeb2IaDW6M7GGYBy7L25AxQuQ7wGdM0ONCbKDaC+d0Cu0gCaSD0vEuwl4P7SM4tPy9o1a2nuCqWbDaCcABc8zSSOZ05AkRlAeO/KqtJMoHKVXGVnAGWlT9YajsyZ54Fe+sHfPh1RinYNIE5iY9fB/GBxEjeazwDFhccBHmn4ZHBBZ32mieQdKrIOw1eEVLRxIzhVyTnF4XIo0yjSKkWlHmcymCoMo6umaBg0GcDnp4m2M0Bz77B5JE1YNDQo5qWKC2cAlKWkrvQEgF4yQHIvTUd0Os7uDlRzYgAlcxoGfjNqc6sU4UwbQPIPrWHQNPJiWamOzABqRRsSUiO7bBnXOhiguDuQo2sAFb6KmSYD+KoW4r0tpjqdV0mJo1Gc+1PRoAxXADgB/EjZ34HEu2gsOgG0rEWN4qaqxQDqnFQkyi22VWKwYUXIcLXbuyNaF2eafD4DKJPI1ecGqO4d0AJVraucxCDtg+NmZmRHgLY40yjejszZqfu2iLKoCng055wwUT55ElnWzAblserPnDE/kkork2qjqws3eW+Spe6WNfCJc55xe3gfrwBK9gdkHQygAQcXRxhAy8JONllDAw5zdIlvNYDY6Tci7xVAKxHq7pE04Nh4lePyjh6AjCSCAcRfmkkSUgJDdWvpGLFPwHAAfmnxBAo3G0xAVQDlp4cjcwxARjGcpyZRCgdBawQVVc2HkjjrZJPiXrty+Zxf2Mrlc8PV0FbO7o7hahG4snICogKoUsAAza0Set8+8X9yUDO0zN02jljjJQBd3aEKfxZM8B2kJLZwfdEEZAVQxfcYSknNQ8qPJKZ93oH3YTi9gUZrdUiJ6fMHaJaVUKPV8ozuFIe7BfrrQ41QZS5kAlx3zEb6pHiznpga/V8AQq6bTSEibjh6pnL1wgSIFqg72VBejbNTC7vYd5pMyJM6kIibtt15QNQoMoar8Qi7O2h3TLz0wkuXyTmWGOU79vEtwfXS7XMJAkoFTceyKYCqeYbrnnzLiL10jj2vRvvQFjE4njjv4DcOeNvV5PoAcDPkjGq6AtApa64bgAsqhms6mvkqjv0003liG8fM/nYFoJ9YVZYMgGqmqje9W6XqeLXBdre6uGlwsOiJh4G1NgtqY2OBPHmyBSg9M7ApdUEADWx7XVBMg8l1T2INDto9TTZY+DwRx+2WC6pvsMnyZOJg8fZ05dgxqEqIclXVgnIdmGFbkLqcZl/QxoP5HE9MD6yPWFDfg2kBT64Pdu89fT84QvYJgn4FXl+bgujYEb1Icmyck+iEr3Ns6as9OxbnzFSQu8Mu2XQqAJmK4NK7je306WiyDd//6El6MuyFlvXRh/7kOhBt3F3UtEn6defozrQibFwfTjQSTszow71DZEBf5OXJoPiM81sl1yuA1BbUwfURvh2f9dK8g9AOHW2cfyR7ByoP7Su6kqo95zs4yhVz2r4YIWJouSh3iKhmFgUVm9KZFc9M7s+iKIQ73hZlJ3FXCaOFLRGd9UXpTETOaxbnuGWlzsNZ/uNqnlCWfIER14j34lqo07VurwBqRTPmIbufo5Axfuh+UkPBwK97T4AbFHp0L11Zt0ad7tQqy1JY1ACSRzZDJJedwvJQRxe1jgxtcwmCjXMy7b5z1rFMt+vghRnH0R2aKyoP6Oi+ZU4fgIiswyxjkcBvU7FalJAyccRSY196X9CFa24KTufexlnm6Jrl8R3Som+ctMbsSRJAZOELGgPNMIoe6XRN2hWp9ZlPk+J+TiDPonJXto6dJUNrnsbgLiVn2J9I3lcIbQcYOAtr9tEOBWCPXFM/1N66MEB8uDcGaQ2orpSeR8hUR87MmJx2rrpSejZBtTr5jlgqWYvmaWaEQG1Krp24D6xGMICwan3ToFm0mrlzG+vsCRJWjQeAGUAr4wu3vOUryfKk+rAXxVVkz0Yo2unkZkIGHkqYtO5k2kk61MmVcG8OUFxErzRYpMZFtRo2mUbnVvJIpRqdh1VYNNwwiFawVmDRKJu5J8jPzUncTuxJgcTtk77JNGHOr3qeIqMPN+/gEhC4D6uOTirhXqxSRHZz0ZUaub8sOIaWu45qWBTboGicbuN4CmD1vSjs9L0lKZ/jYxKNUzeucrVDcUlzA1CV1Oz4dywCsZtluDmDzAwuphawd7KYi8C83WLywgbgZztwpcBiesQWsHgkAvgJGFuAztjYAnSKxwbg54RsAYtVItHws042w7P8NBWuMCpZ1cyUVhLv7MZNbM5DXpS3kVc5p9p43o4n8yi7eSK7aQAljTlnPmf/OLKS/NbiOjobzz8t0dmHzMOCoiMFeN7jHKnkCt03M8m0tnJspzyJZxzQWfdzpMxJ3Iy2Eheuc9N1cZ6AecY4LChqDNQ5yf7HuLovgD/G1S0B/3/j6uQOffCJ8wCe1b8AFB5i5gEJZwqUoPZhp2aCMiezwoMBqlvHbkafTontOCGprNKWxJzMCauONN5MJ9XqiM1oq1NXqW2GZ/k5tJvxXH7SLQMWs3S3AN2HLUDnAW8AfuLwFqCNHxuAn5rckMzJzckSD/pfTH7mTwksZktzr+JiejWnOOZ8bLdxOO7aN/Bz9Vz2IwIqemRzirgbc0B5newLNjImRrNnHTJGuzm4aqHEgNNNxeRaz7ePHzy50uQvJVd+OsMBGvS/GupHLNz8poREigVNVqqu0Dgh751cU13lJHty09wLlxclN36lcEt0Slo3XLheNTnvvkTM66SgFYB5YKSY3NjAzAYlDg0tM3eaRze1wM4g2bjoJtLbkSIHa37t46755sc7CJCV8rITQvm1xRdLBh6gxTdRuLZt8dUVposW33Vh9mfx5ZiOBd+Lb9NwhmPx9ZuO0e7i+zo8FTO4WYmpIys9vxEkj7SpC9NKtcQWqys9mwpSCM3JRcavXlR1rhLbBpeVMo1ACZqsbEBkKUpqoO0JibSPmr6PCQly94mmyIXhQWuEQkMlH5TnCqyB3TemQkD5OVV+Bsa3p2aK6uaDbBIuZCx9O5Vi4NqjU6N5riFw7U4n+kWLy6l+YHE5eb/u2U/MDzuHiJt5T426uJfAfZ6HewRPVcxcY+CSI9vLh14OB9DJDLeNLr5XSFXl7/684eZy++PtS4o/fPrppy8fYnz+//rlRfunL19tTN/+Bw==);lineShape=1;" vertex="1" parent="1">
                    <mxGeometry x="-408.07695288685886" y="38.25964806823572" width="870.3524546110291" height="80.00969894358911" as="geometry"/>
                </mxCell>
                <mxCell id="27" value="" style="shape=stencil(lVpbchw3DDyNfll8P76d5B6ushyr4lgu2XndPs2oOF42ZnqjP3kNzJBgA2g05yG9+/bp/dfHh+i/fX95/u3xr6cP3z89pJ8eYnz68unx5ek7/npIPz+kdx+fXx5/fXn+48uH139/fT8t51+/P/85n/D3q18IzofpFf0/r78U1/N/P/zyav/56cuN/XBxN+8utGvz5lLZzPG+Ea/tqytjt88ulGt7LDbt9tW1qux92+2HK2L92eW+2ce4dnRhH/bw4Jchnp9cj7t9czUo+7rHJ2E9Ip7Wvrno37CeNCQcsN89/jm6lpR92eOTq/PCvqz/PexxXl3ioe5oTq4IPFQ3yL65IZ7fXdrxU6N8fvDO7y+ozXlxYMiPvp9YCy4O4ZBcI4fikjjiYGLUutxz6HzIXSdB9K743aG4KFCEpBpUVZoMK845591hrEw9d8DB7W8YOqwpcCUaxyLPHRD1PUoj69Qc5g3Hrs5zJ7tIb6guquI1Vm2+cehiDwXpuZfr0Va9P3c4qsONg8w3JLR1EJuuw41kliTg3bKrlTedxElP9Ac+B7VpoJ/fgBxUDibjAL4mNt2B1t0B8FYnPTzX7V5XJzp3iK5TisaVtOcOmXMaccsirAhi3ZeEk1FhxTGVHRo4e1UqJxD2N9QkcxoOdYc3qr1iF+NoBoeDl+3cOuSy+NWVQ9vDirJwZw9hh0ZKC46XYd3fgFqY1UkXjhK6turRExp7iqIBZLXptDL4YGFNYym4ukMDtFAVMuSDpzcgacWmZ8btWELnlilaTalc1fncPnM6dAmMmY47ktqqnOf2CPl+CCgAwr6ZDaP5KCJfmdkC2CJ1WuKal2WNBMshmGaJUtSGxPaK9UzaRZnpompUAFh5i33k882yYle/mtKNvSK2fZWF/7ffUhfjuomner4hF1niH4Ww7dyiyBTOIJHUDiT+UTcJ/0O2/YwWvNuDSUs2FV2gEpFkbc8o/VSEqmxocCCSCiZdRc6g9NMbQIyjdmh7kiHrVTOYDvspIKyqrEwH6k9pjUCXDjuOEjinAB6ilEwHbKLtAxl1R97ElnpDWZXnZohUtWtizzh0BW7Uwj05kR6q3WQzB5ewhqwreHfjoOojHKjewUHRYOQDFaS5JAXvYJbk5WyejxXfhlWgFQ7RHpxeUqSi3WUXhANRl9xc0lWDiEVGxqlNoy8kdlBEAQdHktmUSBRas+lsVbLafFT2G4eiMy42jlK4k6KBHYZCa+G6hINTOt58g8FSvbMH4v4oPOrgMi9pcn/t4OkNQWMpGQoWFom7xJIpAkpXAbzt/NJ0inJd8veKANOMIXnJmx3QPqgpIm6KyaTCzG32VdWyClPPOy1rOuxLmk1RtV3jAPY/lPpkHY5549KBmIBmM3CopGwHKQAgJpRAGNqkQzNTXlpq/blDZzEJM5iS3EAdiP50TciSadNSrEJZJGoSFxavOC49PywoXulzlJ5hPeCccyN+ex32sqVjBqBm5Zd4cDVjJLb3aqYyM4yXQsGckTLbi/jMGcw8X+RlNdqIl20KM2TmeCr8NKPN6/i3zJKw1hRa5ZwM8ryauYwLkjn3wJpFlJdf3ZDOJHvs1Bypiy/AXooupPhJDWKYUaHL+I/IYjMKirpdmzouXScmOXVOpZgyvsqOPNU4OmJ9oTU1yz2mOASplXUG9VSalMg5FkW+7WbqDXYmHJJlw2GQdqFV0eCNfjeHEQE9vIJSpzR5RwUHamdVgxtxLXT1N9bwcHlyO5hQD4ZaUl2q6eGgOe3IzAeRsep2HQlBb+hNTmB98Oh859oMJYBuI4deElZMOY2cUsQFMaG7kXmDJM7hR9QPBz1bNM9EfqJL9UF7qTXWvfJ5ozUiyQ3ir+S5HM2aFJPvzC3gkDQ5GpHD1MXJzaRP7CC1pMzCDRAvOao3F21F1u/YzJI0+ubNBi0pSIqHDksfAPQhP3gInXXwrmfnUJlU9SyhETJ/wTPvAkSdCYEHpEk8VCVjXt40b2i85dqldl44QVGKm5ohl1J+1PqxvrI4PzRe/7znFusPJ5O/0jzDuqa81YSEvTeiU5Kp6Zecc9j7pV1f2FPzxCimBFLP609Z9h3PSZOiZElm/XHI8/Wsi9y5+zJl4s5dTWDlf2a1ShhTrbs8r8giSiiSUBnFL0Stx5kvTWQTPy5mjvSV6K/2Yqeoi0qmRUlirfMIG6XUMvhWKurLbkOW736d9Ub7zIJAVd9mYd7jgUsJGvNjTJKupFYM+8jBV4U8WAV+pfKlPV8iKhUqBHOHcO9jNxIDgVUV/zd+rHrfHn/8+DL249Pnz68f1t7+P39Ji59ev8JNP/8L);lineShape=1;" vertex="1" parent="1">
                    <mxGeometry x="-198.14665410734028" y="200.98836395886406" width="62.8890385660074" height="52.901573605574015" as="geometry"/>
                </mxCell>
                <mxCell id="28" value="" style="shape=stencil(rVjZbtswEPwavRJcLs/nNP2PAHFqo64dOE6Pv++4AlWRtKcO0DdH2RH3mN0datKHt+3T62Zy9u18On7d/Ng9n7eTfpqc2x22m9PujF+TPk768HI8bb6cju+H5/nv16eL5eXXt+P3yxt+zjg16i4gZ3/ND6xJ+c+Dz7P5fndYmWfjfGee5ba5BONTZx/I652YEjp7jcQ+G9u/X9Jte1VTYmdvLbEvo/9K4vXBSPt+Z4retg9In23ss1FmH0yQxl6iKSShIZnYAuCRegJAxC0h4JKQFEVnfBsykuYYADVoT0DWXCGAUD2ugCD1zOsA5KQNGmlgZUu2DzpmGkPy9X0VkKLJgQCQxPaErMaSoDOI0wadI61DCdWBFcCToEsykntAIs1Tcu3FBZAqfa8DSq3rAgC7OKCLoYhRkiWxS/8uCKUTBkektnJIXHIUYNvKlaWnbuW1tFFfXkGauiDtvgdk0qPw2NseUEhDFF+pswIoK7UbYgCBmUuuJxOiYpVDYVNXavQU48YIwJmsDqNLtpbyzqAzpgDL0pBWNIT9UOEuPUrGxkgNAAJzaSAfXKJ1GOiNoNlKv9JA1sQP9qjj/B7HQOAdNAwa5IGWehhleBIZIFVdseqgyCo3jONVHv4TItt+9SKKREqRQvV5ldjI9hzk2sCOQviH1WtbwiYUky13NbGNAbuVNV3EHNAGgF3NJj4UTaexIFkCmZYQC6UdHCHSSQNVJm1LeG8Ck3EYTS1f1VPd6tGlnYwLdbrdEqK5TatkuiK86ystgQpFRdbbGASKhrg0am/BmYR8o7gHgKnj8fYAANta4/VEpIrT+64/sGezb7hdwZ6JjbEIQqkqVbCt7JmqlH5hiaVFtnXZLPOCXsdsT+tcH9ww7/bCotvvMw+Vgfc54+kdYAhVOXX6TIJpZB2MhaJCeOCBrbeB+2jGL/H/NMePv98LXnb7/fy5Yf3//vsCHs3fJvTxNw==);lineShape=1;" vertex="1" parent="1">
                    <mxGeometry x="-170.58262575499066" y="228.36805284926982" width="32.88493838505303" height="20.124578744297565" as="geometry"/>
                </mxCell>
                <mxCell id="29" value="" style="shape=stencil(lVfRbtswDPwavxISKVHSc9f9R4GmS7AsKdJ0W/++9AwnER0f1jfH4VnkkUdSgzy8bZ9eNwOHt/Pp+HPzZ/d83g7ybWDeHbab0+5sT4M8DvLwcjxtfpyO74fn6ffr02g5Pv06/h6/8HfCxRAohBHG4WN6lSimfy++T4D97nADaJlq6uyjUCoAEKlxB+BAJa8DqlLVHlCpCgBECrUDSCEFLhWm2ruUChVeB6jMHs+AXCnWdUDOFHtW1U7QdUCyEGMHKJlKWAdI9ICmc2buAwJx71Ir1No6gAtFd0KlBmhlo7VnqTVSEHQsVIsHIJcik7YFAARdfCmZfUasUq0+5AJKL1JUz6mCABZis6TliOyzS0EmAf4bP704W5qzfr+wF/4LCfAnhlknFwBjgrKXmgEykJqF3NLiBOASZ8rJx8CoTNvc4G5IQi3PpCbFZ4FB0AZoroyUEtZmc3m2OkIsVWInhApbnnV1H0OjhLRpQqke0IBLMVHqY7iZLfcnA6XgT0Diyb7Nm31AHi1IrRRAyMsGqfMXVuyja3e4ZX/VPi4IKgmrX/2oVSUBjIqNKekAWWGLT0zcN4xklQ1OsLmmbjZbxwNJyOK1w3iY50bS02q8KVCnGol9DDZW0GweR3cvNtt40AF1Pv8SAmVgX8IiAriNjOuLCwDqoCiFXgiBElheSpt7z9U+ov1L5s9d7ZHua/EJMHtQQ7ZBhuTsUVVbOxcfb0X2l5q/8pnBgmptxK0tPCfwvr01zl7HAsfHl3fy/wDYw/UK8LLb76cbxO3//spgr6brhjx+Ag==);lineShape=1;" vertex="1" parent="1">
                    <mxGeometry x="-14.027123437253522" y="211.2509149825928" width="5.408417798707319" height="23.111323371013412" as="geometry"/>
                </mxCell>
                <mxCell id="30" value="" style="shape=stencil(lVfLbttADPwaXQly33tO0/8IEKc26tqB4/Tx96UgrOzlWlP0Jsuc5ZIckqPJP33sX953k+OP6+X8fffr8HrdT/7L5NzhtN9dDld9mvzz5J/ezpfdt8v58/S6/H5/mS3npx/nn/MJvxeceIp+Rjn+s7xx5JYXXxf74+F0b58p1s6+EAN7J+24Zi+OfAGASBJ7QKLAAFApmwiYkmwDfKDUh6A+GXjw6qG/kvpkEEMIVEIH8I6y2wZEJu49+EQuAUCgmnpApQrqkDwF6QAhkY8AUFtOGiAKDDqvIa6ASB7EkCOF0gESk2QAqOT7GJIeEbYBxZPv65AFsrVkEgPIMEtFs27aQdNQtwG1NvY3QPWwcMJsC1FjC2vLRerJVBNlULlaWp1WQIGl1vNc7gGVBPBbY0xsAfBK2sJmbNzysFW6lAYXqHTa9GIBDOinla1jmsCgKWI7Yi4EikEoGEBsmd66kpi8eiqg57Qjkqmco4RaKFI1fNWoUNCl8f8OIKgj5BEAdEQd5rcCImKfdnWyQcMOKkOldU2CwilzqqmDrgBQOAUUU4fUhtvWlYoJOrdSbgXN/Sibj0AeAkUDqHCPatZNj85pAE2t1BgBBVBDyVeGK6HCKb3j0KJIPGgDsbdpFdRAbkgrBuhadH1Pa1RIAOniNWyd9x7Iki7B0rdo1iGAVrtr033dowVeKVYKPflSIAfSGpPVZLG0DtnSM0aG6psEYgjKHAPQ/QCGQHBtCq0CyLdLPlZ9uSVxBTAcxqrxUr9QVMRFwFaXrZ7RIyLwoNqcjXIt5IAHGYaA81CIqjh3Rn1XqMnUf38jCZSBfbDEENV8gHpspUmAim/QSh6yiIf0wMZh2wYOCgax5dUXqLoU+tQzlEjror+Zo9EYx9Ohmm967s4czVG7wxnqQWErzLkpn8f20nTTzR6NE6VxLib1Eayy//4K/qe9Ptw+ud8Ox+PyxX7/v/1E11fL571//gs=);lineShape=1;" vertex="1" parent="1">
                    <mxGeometry x="-6.7750185007575965" y="207.3358681891741" width="14.912191231511542" height="31.15389402619826" as="geometry"/>
                </mxCell>
                <mxCell id="31" value="" style="shape=stencil(rVbLctswDPwaXTEkwQd4TtL/yEycWhPXzjju6+8LVUNXEOONOpObLC9EALvAcuC7t/3j624I7u1yPr3sfo5Pl/3A90MI43G/O48XfRr4YeC759N59/V8+n58mn+/Pk7I6enb6cf0hV9zXKFcp6Dgfs8vPIX098WXGX4Yjwt4yFSDwWdKAM9CTgw+UuXb+CgkFs8U4218Unxe5V/dbXwN5IrBO3IIHyl7gw+UA8Dndf7eUUAHCOVoD9AKQMW1UrEMcKYMWurdtcQWkQIVD4+IyZIslFCAkLc5SSAusE3e0qbECKqaqdi+6pkCqq6qY0vc1DhQgwgVS0RNxAIC8loa+oYB1ZLI2bYWFTdKKVJgS9x1nDYGRDwOU0qWh2meAXF90Z7bBtnY1ogHqONN5wd8vxeGJ/+B8uwCKE2KG6XtS5vYjcPDnhLg4J35jIUYz+dqBWQmRk3qlkyRtgdvrjHbJakkKCVl1dZQC06pW8SLPnxSRG8OE5sgoHcfbUQC6ujtTZcGamzvnyrgCAy082ctoQB8altxyQMyXHJ1nQ+an9DsfrH0IuDZNyVflVfgvnCd9RQ4/723pSbdbfgY24Bvy4exd3b1aseQKXT91H2KrLbjK0Mb7OSg1xeg5/+8DX4I14d/F8/n8XCY763L/9cXVX01X3L54Q8=);lineShape=1;" vertex="1" parent="1">
                    <mxGeometry x="-11.765315232960802" y="226.0659107944066" width="13.344100646409913" height="2.119265599907294" as="geometry"/>
                </mxCell>
                <mxCell id="33" value="" style="shape=stencil(lVvJch03DPwaXVkkwfXsOP/hKsuxKo7lkp3t7wNE4XjYmNcvvskyIG5Ao7HMg7z5+vHdl8eHHL9+e3n+9fHPp/ffPj7ITw85P33++Pjy9E1/epC3D/Lmw/PL4y8vz79/fv/67y/vTNJ++u35D/sLf73qSQ5jmFaOf7/+Joc8//3Fz6/yn54+n+VTGA3kJRL5GFpG+XZbPs+QUb6Qv597GBHlC5FvITt5tp8SmoB8FyIvIe77l1CYfAqy338Jhdx/juu/l3xdF3Ypn2Zou3wLkZw3DXzfvg50Sz6WTV5/0Yl8D2k/7wyJvFdqy1yWfIohV6JQQ6m7QgqVrVBC3S0i5TCZgqBJ6J8oiSjk0PYz66kiMWrdcd+NSK/tvz9xrRBDh0NPuqUZOnh9CpmceTgvk5CIWfQw0y5fwiSvpka271/NdBC38V48QiNm54xCcYkZRQl937/iZCXnLcupDnk1CbIfWX/tkG9UXi1y92IZ68VvyBdAlbT87oY87L/oDpnBhb57fVGLJu+VFsge8oM7Zcj7/mtcceqGfNpdsgq157T875Cvd/YDKFd7qASmdf+7/dQZKkOtUHZ7aImGAQcQTXiYRNRtGjaovQE+NMVtEjYEMbRNGmZKkN2ee6LyNUjf5WW9+A18AHvrdSHGDfwBe+6d0pS5buOQ1/dlYTUucznCZFoQcytmxP0FhoTBFDQq7VsalStU9LFxJ8g4kB6TGp1xCYj1ceHYLXIDzzCVLTL2pJF197N5WOItOlf3W5qFK7TQdsueaosMeRWYd1OdLSSioIwarlUVBok1IkgZJzdWqaFPVOhMYaxbPxRGSMSWLLokVBAWX8tiiScFGmCd8alCI7ZU5iIcJwUWMmted3JWIP7wPWScFAaxpTpCdtfKFJoGPXdLndySRoE83S2xFa7OIOTQGgcg8qgCi/waCBAE+koJr6E4Y2yePAXp5cKBMjHv3hBbzaeJtXY9IlxroeFzxHUnJ1yKxPg0Gkx4h0TB2KIBKEQaoTUaNEDvsUjHtULHGD0UC1mOMPHhRlnAcx1EI7KGkWnI0juBNEQvmq4g+A76lIzX6rumfYXeOBEoCDNqjox5qqmBA/VMqc90XEZdqrFb6gjGrdHkyxwSViiLG1wrOH9QuloJCKhCAT48aH73HdwPhUYdSBXAgTQDYGF3TkQNTTEy39LYt6QxiebYY1H+Q6EsbnDzWne4L5mG3elcVDgNVVsC+iOd5vFqrUB/NLFl5ET9AaiDZs4sAk2XamhqXpjxJcxlLPdn2DoxGVZSN8lLK/J1qPlxzqfYOneftoIAebjh6gWWcbEVMiagmXucRaDdNKxySLakwCi7i6ZJGZkCI9QwlO8zXFJgBJhJnbKZnvEdUlt1pWsFlz+oAqsutoH5g5UPGf1pmKinQouFiqTJFQtZpUGRFOK0KrDUtTpc0lRwslpYW7Z5UhhMQRCXTIEYnyIpWGviyasiKYRdUyCHViSV+kMKydkSV1AkFXetVKGvQv//VaiYKaaD1F0rFIyi9tLEWuXKljrbUkKoVAX2cKoACYcp8GwXX/rOCnFh9UmBJX4SMds1j+MrQLHXPI6v0NwKjJyIxyXuD6ownAKLohKxQKwKrA9m7+CMj8U4VcBGjNCkSRWqc1EWgSS5dxBaNLVepPM4FkVNwUMldyBUKLTdZgouPhS+pe78gbEZSZixm0/zMyBUFg4zCYubpkDg3ozPoUZnK0T3cIWmZeZATkFYf+XKRVnB2FaAhxPacbAzuJDVWFHNA5nQGv+PKxTnopl2KS4iUKb5w0WM4+z+IopyhYs4fUfBM4E7Ci49TpnyVmMzfgUCAsaX/KEZX2qOL2Va/VHON92WWGqprBIbxEIzFKsAeLgnuNRcodzAmNiScm+McfqU5FqtRQQuWmkbvbvqjyowqOzVMeNGbUlzICjQakrD2gn9aFOfkiYWFEd0jGzSW9JMEVrdlvix1PJgR6fUkhGs0ZCGWnua1SoHkkTr/7EUP2KBNvOBienCbuYdjik4RpMnHSCYFVFDw+RkW2pu5KDQqvTsi7AdCo0yAavUQ21m0ib/dAVaRVtG1lUBbqnwOK0K4NOKtsxaU4yuEx957XEiJbNWP1eAcZ3aaEKtChBG66RYafe6r2Bwywt9Fdrrd+51IPS1TsfurDIIZelI2zTTwXfPlHyrQwD/6ZyHWqV8P4OiJ4MN9VFw6j65B2WkxiPxMyjThRaH3GtxYBOlUtgYHfMy/U1lCg17hLomY7rDkb55pHY3A8R+rVaCZRElYgPCuiQsUI81y3QoVHoGNYQCLT8+DtVdlXnyWrwaMwzkWEebBDlzl4wKtFfbXUNurjWvFSpOxqoCM40m7tCTdr+sfTxRYTLiOnD49oTP1xp1VaHPS5A91YxE1BQIClgf369AnNomBRIqsEzOZhHcQzCHKG4azF6OJZe+8T/51HRFmjgHPbQIDkROPmDnU/DZ+WzOwGbt5CFIKZt4p2YrFERj6z4RD7KpNteWZ2FUmTAkNVMoEU3HFMsJXJm1Jsf6lMuy/nFy8+WDd6htOHk3DWvLs4lrV/8ZhWajEy1DIwbLaQaOIw1+5OZ4wKClGdeC1DSNte8KPkG/U1bHdKZz9paRp7dJi+oJp79thoYN5mG5QSMF+/vRkUmhBhHRL63lROXT/l6Vp0qe0XeaREfE61ppwhpXX/+UALBOf8TsUzMMlhu6jLsMyl5ccb9UWi5171uEAmlCey5xfaNxQx4CpvCRLscHhSfbfhZdaFdWkDNb5syagVgyNESis/04D9ApPjQM9/YbRqOwxmOBio2XIcO584nUQHzIHD8n8kYrIbHZ8ug6Bo1WqpOb1rcmN7PQfNEbYjl5OqbzD4VEax2puJ5EpFmOlQYhTFJQV3n4YuXOgH/DOnWjTcbUMYpVOtlsb4rfhdEbnViZF/qZlKEcftcmjJwlTNF4kTB7k6A5Y3aTq5EGPbuOCvLCuGJFCh6p0/svjHgi5L9DjHRo1X/nGO+1kBvKJ97Jh+/4Ip9Cd9+B8nFSxfyI8qyoZglKR3nWmhJkWZF+RymCLCjSHo0IZliRzy2I6w/y+7+QpzP6bj+JN9bceRPv0br7zNQ+/XtlirfeHjKt1f3wd8d35fWH7x85f3j69On1G+nz/+NH0fqr1w+q5e0/);lineShape=1;" vertex="1" parent="1">
                    <mxGeometry x="-228.77681292500642" y="170.8437318286069" width="130.90064450907107" height="104.40269320441246" as="geometry"/>
                </mxCell>
                <mxCell id="34" value="" style="shape=stencil(lVvbct02DPwav3J4Ey/PafsfmYnTeJrGmSS9/X2XdamIC2kVvyXHgEQSwGIBUA/pzdcPbz8/PkT/9duX598e/3p69+3DQ/rpIcanTx8evzx9w78e0s8P6c375y+Pv355/uPTu5f/f347JMe/fn/+czzh7xe91F2oQyv6f/7/xfn23w+/vMh/fPp0lK+vlN9cbiQfgpBPrnqWT0I+uNpfIR+765Hls5Bvc3s/KF9czCy/CfnsMp9nFOcZo91vVvLBRX5+F+sP3bWwyGe3ifMMzW2rvTaXipCvzq/yZR7AuTz8Z1vk61zguXx2oSzy3SW1/ujaat8QXPBCIbiyHlDQHhe8S6SAIxJv6LwDnNnWr+XhoatHw4ZdHBEssHoofCoKE8Cj1+fDJYow8cb7xRuDWP/uYLt8d5t4PhyYECI6ryDC5fX5KU8TXsj7df3AvCjWj4hcn5+9hMTIEZPhgwoiJiDs8purUj6sCJGbKwoSp/vuEQxMFecTJ4Dv8vo8Ib/6z3Z3npHWA3+W+83rfkuUkBI5A5Q8f7nyH5LH+oV/Zo6v0mW8ZEbcGmT87tbf5bMEoDK9a5cvLonzbLz+2lwW6+/sn827TaUY/HldUIvSgQC5fc1hTXscEJmSasOWhYmByBQDrUqfCzjU1ekaQEvlscYo0cPE7XMv9a6se+hxAtkVMyjrknqaj7iiHn21Q8+uqiVVl1bP6JvbFNIhcGnTsINii3Ee4q6w84VLeplZIQvnS7BDYYUqlgRwjkZBMSigcyeFJi2d+wyXo4JKsGn++agg9rCVmVAPCorkFD8z6nHTiiOkCenHYxUgXwpnhWE4EXHFGq5M6nZOc8B8AyuoTdfEzA7uHYXh6sbIigAKakmVqQtiWsFM7cz2gRpFLKkZdtq9rD+aMVwDWxCn1AxqNB2igN68Gq4haAV643lkaSyyCuQD9HpaUpDHOs7EpKwg3BunTqeEnKhyKOxKZSCSrsoPfS8TD1ldsQYoEI2pUaI3fHMjBaQY4a3D+1cQQAxm9QbEAymUGYPnCnANKgaTawJbR8gTtwqam1S2w9ZcF7gEBTolgKdKKFAoq+EAz4rODwWqmIMsmaGQ1qQIQq8IK06J+FKG82k7UMmWs+RL3aTdvLP8K+dLa0wnXaT2xIws6SyKEK3U6CizkL4CAeKtqAuTsPQAxtU1Bl1RuARvpUrVz+7WD2IryHhTb0imli/Svdve3NgVdDMCGYjfkCQuAeeI840CUCXFzIYD9a3qDXGWs4eGh3Jv4BxViGDjqmkGnOOWzQ4Ll2yGejbFVeFLwLneWcGLPQDn6FhHZ0wklM008gK8S5HEylwDCqp+2DY2HBRUYv8OjAcF1RkCMPZsFNQbPHdroeBV76lxjhtvEPEAJE3mlNSSsnHvoSDyQ/bMBG5OCUharYJqcPVZhB1amE1YegwJPCtsqixrxluT7tE1rqdDlBE33tBYQeWHsQd6Q5DFKxSoTweFKAwHBdtKVnUcLB3NktQp5Z2wHZvVwnA5mN6w5ktQoGoXCso1oEAUDnZQzPhU4eYNvKR09wbedJIJ5eRY86woftRwuvA7cY0sycmJ8yVZgJ+4d5Jd35MAShpmzkK0aAUGAc0ETmAmyJJmAJkJIOUaJ1AZNHpbML4N0Vcq2PwQZDMnm6Jp7EGc0shxdtPilJBFqTczFFSejkwSQ5At8i2bPL3DwlUHi4YyYw6n2AyqBXOsihkXxLQFMtXyisb54mzvnCuYAnxkUc0qq6E/UfNWZpWbHA3YHhloqFRI3MwJe4V91SOjef6YGKs31FkXHth9F77UjLfGIJlxMwO1mzsDKMt4opldU0sqs6Y6lGWy8GtcP6DwkxW7Z6hEaak6631P44fiVU19u5mhoDyOamydzc2KIlFjdB3oqkSbIXXZmzGTVnUZoDeOuJz06L3zbYnRzRchCgVyb6CtGtZDgUoaFDkqpoP3fGNioKfadedEDfRUXQQoUNMYxePNJgg2AIbqVgwMQUhW9Kipm4AYQ1dlOdO3K32OGS9biWbsqiYWUKCcVXWZNfqnq+FqmdXmVQQF02VWaXQ0ydZNN93t76agbjordkONm+5utm7mCZvsIrTKTTL8IuG7mOZ9n7n+Cr7pCtHYldoDeC0N5KLsYzdzSj1JvIddqWkMZ1ExDc/JZpKqfAm+yTPCm0QdZsjvCnoKifgiSjaiXI/8eJLaZZe5JG4ad32TYowtKysobz0ZjHYZD3b0esDnc/bdOWndamzcBb7ViHxFa2xDVYvW/7ocpqbtxHayvIxcdAxjq1tCnZu0vcmqPRoA7/vNlXOFzLOgrnMKeKQdOatKK3RzfQFEUSlU439J0jjweX5DkLl9tD4M+KmWUQhmvttkVzeYZggQWjUHDRcY/FoNwc38OMo+XOEs2rxu6ZpBapXsPvFNHtQ4qqe2j2V3+SQ7lYEvCVQvy8TAkQaqpAomz15dNjkN8UzTQfaaOE8/O+67vL4PafltlYzYc3sPfFixVc/NCTBuxUg83yYYlF7giqk/AeCqdjP3gQHfqhHt+XrQ6GLJ9RAuog5TQBp4BJKSHBQFjt8UZFsvMnUBAqibPolhGhGtcD3zfVQ8QXUYMjdJcGLqQlfhu1BjeqjI3cksUK2/8Xj/pi20c6Bjs03dtwwcYF1yzRDNhVfJiULiTvIm/SFsfLNRT5SRJIkGRp2QzHWgIK+tDEBcHchLfBsXuAvJS2aT5xcI3+XlJyrmExLN/uwnKl7a134Co+XtJzZeT9rMJzw38uYTIS/jxX6C5GX9Zz9xupXPbN+bcWpl+6p4TJ2v53iJh2OkwOtRvZOT6ZTGT8/xFWQb7kz+ZrxG64m3MxcT76rUMOcZZfFt7RXlVSTrD0n752s/qbuVxz++f7/3/unjx5fP/45/5+/98NPLt4Lp538B);lineShape=1;" vertex="1" parent="1">
                    <mxGeometry x="-46.639374901114024" y="191.05549895829063" width="85.26533491609712" height="67.96836842516797" as="geometry"/>
                </mxCell>
                <mxCell id="35" value="" style="shape=stencil(lVjbUhsxDP2avGpsS7490/Y/mCGUTClhgN7+vnJTb9byckLelnC0q8vRdcc3rw+3z/tdcK9vL8dv+1+Hu7eHHX/ahXB4eti/HN70acefd3xzf3zZf305/ni6O/39fNuQ7en78Wd7w++TnKfsm1Bwf04/VKHC/375csI/Hp5WeCHvrsFnymzxGeC9J1+sQBIgwJSmL7gCBCJFGQWYXAACiXIdBRy5BAQyuTwIlIy/kK3RxVOJUCDEQSAXEvyFOMYtayQrECjkRremSt5DgTIyKTEJ+kKlPBodcw/lpkBwVEejoycBkQ6BeLRBIjESEBs4LlSB0SGRD6NAgIELhcJotGZIAPRmR2k0+mzVtgBbamjsK2ArJ2u0lx77bYFKboy0d1QA+SRQMPkA00GjlEevRqqoJlXiUSHpPtjERyY/8iJQBTFQXrqxYniqgNlJiVoMXhzAR3JjyBamb+PVXmfwEUQ4M0U2eKRP1mKRDR5RTosVV4MPwD9FrH8Uj95feqk64z3Aa3n+T/gz3gF7a6VgCA3ru+JjMnjOEF+CwaN8UXwd/R8uvb9Wg0cZ3/QZ/b8Q5D28qUEC81fxHAwe6l96ep/xEfBf8dG+/wLe2/cz8k+2rUwwfzRfJn9ivNj4ovpWp+atfAD1SvEmXso3rE+1/GTsT1PPfS9g7+GTrSfQ3toHuNX7cf6KtRfVf8Vni084X6oY/3s0Ybql3pwF8oUPjARlHAA1QAy+4AIhI156BN8NQDL4CMagFmBbICJO+GDxggh9LX5qAAyn47nB8JUNTPGAoGXp/2e8B/5pDdjqgwjXGvykD+CbDhBi+Yb8qQOKaZAMp9zkuztWBRf4XwcsM0AIHsimnS/CMV0HRBOv3A3axie7Ii7LzTZ+SdfVRJyAg8T1+CwCOGKc+y61COjqgfYG6SV/EaiwRujiwqNKF7q8bibeVEUtAyBr2tRvWC0wbdp2ZWjhYKNRjZPhXerM2hZQ3o/EjgFWXi3kJg6xwFm6td7RrUng8KoC0ezROn6hHdRb8ulqD9dib9eldjwAXGoCow1a0CqgxvyFkuGEpgOBaWg14CPOtALVCOndbjLmTFTgEKVLcBiHojb2I5Wmy9VqDvjgbaziMjbd3iosS/Nt7xLe+nSZMzbxrmu79hCghbNrpeJRW1u2yFXI0O3QTf4psL5MU1obnKH+Mx5VyFmfBPNsthe3tdmfkQQ0kTlesZ+vPsgHgfpce0u+jNeH8+H6/vD4eLp7r/9vD9360+lIzp//Ag==);lineShape=1;" vertex="1" parent="1">
                    <mxGeometry x="25.662651072681683" y="167.61733060570123" width="64.01434122377111" height="44.44885584318001" as="geometry"/>
                </mxCell>
                <mxCell id="36" value="" style="shape=stencil(lVhJchsxDHyNriiS4Hp2kn+4ynKsimO5ZGf7fTBRcSKAw7Z0UyZoE0sDaHLHd29P96/7XXBv76fjt/2vw8P7044/7UI4vDztT4d3+bXjzzu+ezye9l9Pxx8vD+d/v94vlsuv78efy1/4fcb5SjktqOD+nL8UKvzvw5ez/fPh5dKeKRZjX8PcvlCOyrySi3PzSqkp80AtAW8ieVb2mYKb2wdPTXvvHXEDgEJOH+DFozoHcKCoI/CJCnCJK/mgAZVingMi94SvOfIUQMlio6RLHCI54FJKxE4DMpUyB2RHVWcpyJkghpyoeQWQvDEAFEe5akAiD2IoiZKOQRIdQAylUckKEH0n1zZVpQ76hBgpAmrU0rm5Ago1EHQLthuSnAm6p2XKmt6pwaBbI6/bM0dKIAbvXKfOimidLdtHlJ6UdWBkOAKap6q5UT1Mk+TVAiIVMDWkcobfS2mASyVS1YUQJzOmq9NBN+4E3m6IQE7HILVMIK3Rkdd0vSjNbNCwJodUH6WJs+0IAaDKSUsmE4QQHCwHljrFIWrQcwJIBpB64maAxrYQCQESVZOlQB5sCBbq6Okq3EA7SOrQTAwy3ND8dkMdXE/DNiAMdXBwjcrgcsHGUEGWYrJLS9LqUAzrElwBsS/KawG5Ozl1yVS6dKkyDdoAKtzUS1pN0HjLLYUbOq4BlxZqDB1XPyDfAGDUcULvaoNm3HGWrQXWYbNF021DAMsTHla7tGhGgNzn3AW9EfmWUTl0HBJAyzROFoCCvhmQZMlpl+r6ZSaxzAk1Qalb2MoT2buI3nXQZKUQo707zNblTKSYatfaq9iocHpLToxiyty/bAOibaBU4aIWmWjoLZoMyUQJsehhLKovgkqLnsp6LkWsyfIg10W5okEmcr3oE7jBLZqy3Q/SUgxcSs5Ob+be5bNhbOYS+y6htltUPNaFk7tjRIOM7Z4OsmLw1c8I18Bdc80ul8VcXh1sIJ/7rF41HL4QeG+5JJdLuIGsbpW/EEEZxF/doBXeLIe7QOhVvO4tAAvW8anBUQCNMz5lyN0esNo3m01HEdiHgdQOPpUIH0w2PbxlSPaCtW/In2DlRYBtL/S1XdwdvNI+QkE1+iOD6aZ4M5ykYz5zv4FfWa/yIR+sPdLlNz+dfWgvP/6/0z0enp/Pz3yX/2/f9eTT+U2QP/8F);lineShape=1;" vertex="1" parent="1">
                    <mxGeometry x="119.73344906110492" y="148.4691434416427" width="24.270335388612523" height="28.77026206173582" as="geometry"/>
                </mxCell>
                <mxCell id="37" value="" style="shape=stencil(lVbLctswDPwaXXdIgg/wnKb/kZk4taaunXGcPv6+UFW1BmLB9k2isCKwWCw50MPb9ul1M6Twdjoevm5+jM+n7UCfhpTG/XZzHE/yNNDjQA8vh+Pmy/Hwvn+e31+fpsjp6dvh+/SHnzOuZ+QyoVL49XcFPf5Z+DzH78b9eXxB7Co+RSQP0EBVAaiBswPoiFkBSgaFdUAMASEoBDMa+zmxLjqB2jqAO1jvIDwUZ4fGCLrqLisOoNKSwD9AR3V4zQ1JN+KMh4sIisjdbjG9rhLbUEkDhDindQ3RFJ1RHFojoqlZtORUEGzJ3Nz/Z9Sk4/PSlsv5EJoRUkQo64BUUXRG0nh2dsgRXafUhOS+DiiMGCygORw1QqZ7UuIKih+KdgAifTM9E61OG0Rmzezg901mhY3wfGHI+LL2jEl5zrhxsq40SdvpdGUU4wD+8JS09PXm+azLwN9oATI/3dDkm0wM1ryv2Fj6kJHvk/ca8f3xrLt25WiQ/LUsrpw9GazrvXK4CXv3HJ7VqlTGwPPfYNMvSJ6dVjStB1oM8zI7GU2nH10vooyk8wmuenK2+fsDUIodSj++FjQb7x7KQp+t17NSpoXu2/iUW4LJ3+9XJ3teih7Iib90V3P0c/1uJw//L4Yv42433yvPv9uLpCzNl1B6/A0=);lineShape=1;" vertex="1" parent="1">
                    <mxGeometry x="150.5095613565245" y="171.02177480772662" width="2.501507169762931" height="11.133080222745804" as="geometry"/>
                </mxCell>
                <mxCell id="38" value="" style="shape=stencil(lVhbUhtBDDyNf1XzfnyT5B5UYYIrBFOGvG6fnrh2w0jrBv8ZW81Io1ZLml28eXm4fd7vgnt5PR2/7X8d7l4fdvHTLoTD08P+dHjFp138vIs398fT/uvp+OPp7vz38+2wHJ++H3+O//D7jPPi2gAF9+f8RarS8r9vvpztHw9Pb+yj5DLbF4n+sn0Rl2b7LK5etu8b9j5ctvdBinGokwN8keZmQJPoLgNwRSnMgC6BnICYY9OA3sideil+AmQnqRNAkdI1oJXLgOSlzjFkLz4SQJHcNCCSPODnkDUgEZdy3jghM0CXWDWgJEK9IDnpW8oMAKrN1wpqVBJ0qVIUNUA+EkPp0hQgL/e2CajesDUuZ24D8LMiXxDPTkAe5sTFJoGwtVbJcwwxSmInIOiZ3qEthN8EtCBBAaI0kriWtAj4Lp7UdKsL+1dAkkgS17ou0U7T0L1J9KIi2/ZtKZbF3okjAcC+z1njtdBRPDO1UeCk/mFfzQUxGgHQ52JDzipJsndrhCuPkgQWM45QtZDeC6IoAYiUeH0V9vWWoBg8DYraBXlm7a0t3XIFQHSYS2jHcyIga5Eloup2lYskUs8A+NklqB51qWjuQTFYM7GAUKnUW5d85ZlG0DM1MEeQBjpudT4gUr1A2sJcPm6RqEv2VduzRjKIN98QmM1oBGar8vScFdDg2SF4FNmYtFGeTgr3SWUZU4dnxIPGmP5cWda6znJu75VnV/WM+ZXnLc3dE+XJmuH1gKA7D4YINrqh87T5hBroCc3UQq20PNE9++xS83SKQX9WQbcilbVbt8z8a3liXCTtCh6r+un8WjHFKC4NpWUnmDnpDeM/OIrhCCZKdtgbQkhOsONkXyfSDw6sHaMYc8mMxN3TjmiH7u5oBdmxfgBI5uziAEAhQdvVBIDGdhmz/CBoR9TYrleDrmwfMwvcuFZSQXZFHLrAdkqzhALQrlpzO5+h7SI9yMeUTG/qaKqOcW/Lnm3F+qUB/tAA9EtGT3Svd6Y6+WblDO34yO2WhWIVyUYXYqdrGbrMnhmgVvP/x57FXmJMP4cEMgYZ+9Ku8wdiw/Jl4s116XQfu88xzJOiNPnKXLkMHxKX92tfzt63x4f/z3T3h8fH8yvf29/1sx6+Oj8Jxs9/AQ==);lineShape=1;" vertex="1" parent="1">
                    <mxGeometry x="61.011490074322865" y="233.56687333287596" width="69.06154624525755" height="3.2482520277319793" as="geometry"/>
                </mxCell>
                <mxCell id="39" value="" style="shape=stencil(rVjZbhsxDPwavxKSSF3PafofAeI0RtM4cJIef1+qhtwl1ztBgb45G86K52i4O755fbx72e9SeH07Hb/ufxzu3x53/GmX0uH5cX86vOmvHd/u+ObheNp/OR3fn+/Pf7/cDcvx69vx+3jDzzMuBqptoFL4dX5SqMmfB5/P9k+H54V9o/GvhXkl4W3zKP71MVIA70+Bij0gZpIKAJVqtoBOqWwDuFCyLiWmkrcBkilUC6iU4jYgKyAYAEeK4IQSSByAKYKgS6Zus8SZUtgGVA3aZokbNeBSi8RsABIwoBPbGEQogdboQmJdkkIVtEZv1G3hcpylvA7o1GyWtDINpDWG4CtXtF0T9qlbQKEICtGzb9eaKKIgArGbuAYBrfgYRi1BuzalABtDExh0zcS2EHommtGiWSoW0CYvXAfE2QkToGkoYKi1sGLbtScS0EyiRGaHWvsxgqBFk2izpKVEJ+hEuoHohTJisk5is9QrFXCCUmmzMSwaeKPBKdjKjRlBzTRDXNgzYIE6c3ix1zegQk+qXoTMqM7Uxec0dPj+6KvcUGtTcG2kdwPMjxtObTvU2H3lf4IkqSWuqwMCojCe+V4AGJ2Q5328AHQQQixeAmiOOugJBXRXhEwRubSugvILqFq8DNZyckAbadDZZUkJCeuY6E7olJFLaTLiAgCzpAS3BoBKrzh1eATs6/R3EXID14KmvPucVhBA9jfhoDuQIR1c579KGMB2Kg4cnQpUknXKlUWbBuC/EpvLf5pPtkbTc12a7Pp/ACNk51KA4oITZTs4qspQzCoCXZe2OpXl9VtQqLgTCryjcvT0ouICzUHWPrV1a4kaonheqZEIBZKqETf8tcOrX8WzY+0q0CX12KntGiCBaRKT050CxYWWKdppyziGdrlXLwCGN2FLV9Q26lZVhY7mpUJtoUo5uRVDWRawdgl+pCXN2m+pQn9CmCruenv3uQku1iQE4O7XJJa5y22JPNdLHCiDoJP4VW/s4IC39TIsttK631ZUaWrWPmLNpo1hQ9a7roG7c7VT1blvXE+pH+f4geJ0KjvARbh5jY0F86ofPtTXbuMMuFYrBa8qANmrunS1glQ31KA4e0Rcau96IVFB9rL60kEZbSy8mmA4wMN/m8+M401+b8yQgkb+rX2ZHyW26vtPX8s+ttcffz/NPRyens5f9pb/95/y9NH5MyDf/gY=);lineShape=1;" vertex="1" parent="1">
                    <mxGeometry x="154.75570796012698" y="219.782354230098" width="22.179952493904693" height="31.035271300571452" as="geometry"/>
                </mxCell>
                <mxCell id="40" value="" style="shape=stencil(rVnZbtRAEPyafR3N3TPPHP+BRCArQoJCuP6eMss4nrK3IiTeNk6XZ7q7+vQpvfp6++7LzSn6r0+PD59ufpzfP92e0utTjOf725vH8xN+ndKbU3r14eHx5uPjw7f795e/v7xbJJdfnx++L2/4ecHV5iwvqOh/XZ545/2fB28v8nfn+428Rdc6yQe7Lt+8S22Sjy5kIV9cjpN8daEKeXM9TfIBBwgFWne+zgA8KRIQZgBUaEoFmJRUrq5HCQgzIAUXklT6r4oroAwzX7Nqm72cuqtKh+y8TYCcXQgCEFydeZGbq8KsBrPOji5peOYYUJ0PM8Ck0qAq+aEGl8WVKogwc6kWVxSguDpTA6/Iwkq4QJsdZ8lF4Qeo2AlQXRPxBiP22UqIwCjMmvuwyQpIUmkQodEJ1RWhQ8YFCNBdEvEAMufZcT1IpZMfZF4BK38PAYjgRAAbMXgICCDfTO++8vc4Hpyf2R28TqzgQeEbmbgR8irJR1elvPfsBC8UwPvnWFgys8hJySVycnClKwMZEbtL2oXibI41ayP1H/s4jcK0ATRhISTdFncnaGK3xDrIaPactxGcXlyp4AKVrRoFoJrLBIBjhBssu0p+Q85TpcQPt64Ak8Toa+HYMC8L5vV6QNWqTrDB/DUWkHIUoPMJSDCqywCA8jaiTaWwTbSviCTtiiMKKZEHvY4BjR3Ri2wzlhQ30xWWNkFXvC/NZMIroihvUDHvklgUeRhmr56vpIIajqW8CoC6EnqrZmylqPrDNsrlxnFdJbI2VNxww3S713blrSizQmmqVghCocNiVkreXRaTxXHGANUq9cJtPQDlBfJVBiizgt6UmKB0Uyf0XTyE0Qv9Q4y+kAaMjsg6lSF/k6t1dl1SGbGvalcj5ol9JuefpTNqDEj/E2Bro7C1knA1mmaa4ZZeRgHwb8oCXtK11F3hbaOLPS7tSK5EV5PswzzFXbHJQXfpNihGkfqEDvsOESd4kSvRs3ILZ6OLPQYELkGLlVQ87ByN+FEHZB5O4OgorBoDbwO6nmZwJYqfxapqdMg8VWL0Vdk7NVa66YVDjnwldIlZtZWVVzKY+bKa+fwIr81UmVQfmkd7tJlblaMxhtrMvQpyiSvVwOkeMauG9ZrHDLlO9230Btc6XQbAcSKkzbPSsFtTG4roygyAZ9SV0EuXmUvwvSrsyJRUHp7ZdQww7gTAX5mLd/sDzMpFbVna6Gs3y6uirtQ4aSBReaV045gOfcz713Qgs4Yk4wHhkqhMaxXC6ESed44qQOvOqFXuxhArNFiWMdZdWyvt5NWyDrFDU2KRbQzkaVYHcVUwJ25YkxykIW+B5INaoyWunVFv0TLvS4OMfMgby6s6uGz9eMetmjb4l5oFL6sa+EPtuZermH/d0b8sjx/PHwQ+nO/uLt8Ttv/nDwh4dPn4kN78Bg==);lineShape=1;" vertex="1" parent="1">
                    <mxGeometry x="171.63155821775536" y="249.7752732673389" width="23.973359654404476" height="35.98942372004359" as="geometry"/>
                </mxCell>
            </root>
        </mxGraphModel>
    </diagram>
</mxfile>